<svg width="40" height="40" viewBox="0 0 40 40" fill="none" xmlns="http://www.w3.org/2000/svg">
<path d="M4.99967 36.6667H22.3497C22.7917 36.6667 23.2156 36.4911 23.5282 36.1785C23.8407 35.866 24.0163 35.4421 24.0163 35C24.0163 34.558 23.8407 34.1341 23.5282 33.8215C23.2156 33.509 22.7917 33.3334 22.3497 33.3334H6.66634V31.6667C6.66894 29.4574 7.54775 27.3393 9.10999 25.777C10.6722 24.2148 12.7903 23.336 14.9997 23.3334H21.6663C23.4701 23.3289 25.226 23.9142 26.6663 25C27.02 25.2653 27.4645 25.3791 27.902 25.3166C28.3396 25.2541 28.7345 25.0203 28.9997 24.6667C29.2649 24.3131 29.3788 23.8686 29.3163 23.431C29.2537 22.9934 29.02 22.5986 28.6663 22.3334C26.6497 20.8133 24.1916 19.994 21.6663 20H14.9997C11.9066 20.0036 8.94119 21.2339 6.75404 23.4211C4.56689 25.6082 3.33658 28.5736 3.33301 31.6667V35C3.33301 35.4421 3.5086 35.866 3.82116 36.1785C4.13372 36.4911 4.55765 36.6667 4.99967 36.6667Z" fill="#FF6600"/>
<path d="M25.833 10.8333C25.833 9.3499 25.3931 7.89985 24.569 6.66648C23.7449 5.43311 22.5736 4.47182 21.2031 3.90416C19.8327 3.3365 18.3247 3.18798 16.8698 3.47737C15.415 3.76675 14.0786 4.48106 13.0297 5.52995C11.9808 6.57885 11.2665 7.91522 10.9771 9.37008C10.6877 10.8249 10.8363 12.3329 11.4039 13.7034C11.9716 15.0738 12.9329 16.2452 14.1662 17.0693C15.3996 17.8934 16.8497 18.3333 18.333 18.3333C20.3215 18.331 22.2278 17.5402 23.6339 16.1341C25.0399 14.7281 25.8308 12.8217 25.833 10.8333ZM14.1663 10.8333C14.1663 10.0092 14.4107 9.20358 14.8686 8.51838C15.3264 7.83317 15.9771 7.29912 16.7385 6.98376C17.4999 6.66839 18.3376 6.58588 19.1459 6.74665C19.9541 6.90742 20.6966 7.30426 21.2793 7.88698C21.862 8.4697 22.2588 9.21212 22.4196 10.0204C22.5804 10.8286 22.4979 11.6664 22.1825 12.4278C21.8671 13.1891 21.3331 13.8399 20.6479 14.2977C19.9627 14.7556 19.1571 14.9999 18.333 14.9999C17.2283 14.9988 16.1692 14.5594 15.388 13.7783C14.6068 12.9971 14.1675 11.938 14.1663 10.8333Z" fill="#FF6600"/>
<path d="M33.8217 27.1549L30 30.9764L27.845 28.8215C27.5307 28.5179 27.1097 28.3499 26.6727 28.3537C26.2357 28.3575 25.8177 28.5328 25.5087 28.8418C25.1996 29.1508 25.0244 29.5689 25.0206 30.0059C25.0168 30.4429 25.1848 30.8639 25.4884 31.1782L28.8217 34.5115C28.9764 34.6663 29.1601 34.7892 29.3623 34.8729C29.5645 34.9567 29.7812 34.9999 30 34.9999C30.2189 34.9999 30.4356 34.9567 30.6378 34.8729C30.84 34.7892 31.0237 34.6663 31.1784 34.5115L36.1784 29.5115C36.482 29.1972 36.6499 28.7762 36.6462 28.3392C36.6424 27.9022 36.4671 27.4842 36.1581 27.1752C35.849 26.8662 35.431 26.6909 34.994 26.6871C34.557 26.6833 34.136 26.8513 33.8217 27.1549Z" fill="white"/>
</svg>
