<svg width="32" height="32" viewBox="0 0 32 32" fill="none" xmlns="http://www.w3.org/2000/svg">
<path d="M11.5 16C11.5 16.2761 11.2761 16.5 11 16.5C10.7239 16.5 10.5 16.2761 10.5 16C10.5 15.7239 10.7239 15.5 11 15.5C11.2761 15.5 11.5 15.7239 11.5 16ZM11.5 16H11M16.5 16C16.5 16.2761 16.2761 16.5 16 16.5C15.7239 16.5 15.5 16.2761 15.5 16C15.5 15.7239 15.7239 15.5 16 15.5C16.2761 15.5 16.5 15.7239 16.5 16ZM16.5 16H16M21.5 16C21.5 16.2761 21.2761 16.5 21 16.5C20.7239 16.5 20.5 16.2761 20.5 16C20.5 15.7239 20.7239 15.5 21 15.5C21.2761 15.5 21.5 15.7239 21.5 16ZM21.5 16H21M28 16C28 22.0751 22.6274 27 16 27C14.8167 27 13.6734 26.843 12.5936 26.5505C11.2935 27.4638 9.70934 28 8 28C7.73438 28 7.47168 27.9871 7.21289 27.9618C7 27.941 6.78906 27.9119 6.58105 27.8746C7.22576 27.1137 7.68369 26.1902 7.88518 25.1744C8.00605 24.565 7.70761 23.9732 7.26245 23.5399C5.2396 21.5709 4 18.9181 4 16C4 9.92487 9.37258 5 16 5C22.6274 5 28 9.92487 28 16Z" stroke="#1A1A1A" stroke-width="2" stroke-linecap="round" stroke-linejoin="round"/>
</svg>
