<svg width="26" height="26" viewBox="0 0 26 26" fill="none" xmlns="http://www.w3.org/2000/svg">
<g clip-path="url(#clip0_689_2148)">
<g filter="url(#filter0_ddddii_689_2148)">
<path fill-rule="evenodd" clip-rule="evenodd" d="M14.1154 20.5747C10.1486 21.0308 6.55946 18.2242 6.1077 14.2951C6.01743 13.5099 6.05949 12.739 6.21661 12.0046C6.24665 11.8642 6.35311 11.7525 6.49196 11.7159C6.6308 11.6793 6.77846 11.7238 6.87386 11.8312C8.01064 13.11 9.74436 13.8343 11.5905 13.6221C14.5839 13.2779 16.727 10.6045 16.3885 7.65961C16.3721 7.51661 16.4375 7.37605 16.5578 7.29707C16.6782 7.21811 16.8328 7.21372 16.9574 7.28568C18.8521 8.38004 20.2216 10.3144 20.4891 12.6416C20.9409 16.5707 18.0823 20.1186 14.1154 20.5747Z" fill="url(#paint0_linear_689_2148)"/>
</g>
<path fill-rule="evenodd" clip-rule="evenodd" d="M12.3355 8.72507C12.372 8.51791 12.5696 8.37953 12.7768 8.41605L14.2775 8.68066C14.4847 8.7172 14.623 8.91481 14.5865 9.12198C14.5499 9.32914 14.3524 9.46753 14.1452 9.43099L12.6445 9.16638C12.4373 9.12986 12.299 8.93224 12.3355 8.72507ZM8.60561 5.74642C8.64214 5.53925 8.83972 5.40087 9.04693 5.4374L10.5476 5.70201C10.7548 5.73854 10.8931 5.93616 10.8566 6.14333C10.8201 6.35049 10.6225 6.48887 10.4153 6.45234L8.91462 6.18773C8.70742 6.1512 8.56908 5.95358 8.60561 5.74642ZM5.6931 9.10115C5.72963 8.89399 5.92722 8.75561 6.13442 8.79214L7.63508 9.05675C7.84228 9.09328 7.98062 9.2909 7.94409 9.49806C7.90756 9.70523 7.70997 9.84361 7.50278 9.80708L6.00212 9.54247C5.79491 9.50593 5.65658 9.30832 5.6931 9.10115Z" fill="#FAFAFA"/>
<path fill-rule="evenodd" clip-rule="evenodd" d="M13.6605 7.79821C13.8678 7.83475 14.0061 8.03236 13.9696 8.23952L13.705 9.74018C13.6684 9.94735 13.4709 10.0857 13.2636 10.0492C13.0565 10.0127 12.9181 9.81505 12.9546 9.60788L13.2192 8.10722C13.2558 7.90006 13.4534 7.76168 13.6605 7.79821ZM9.93067 4.81956C10.1379 4.85609 10.2762 5.05371 10.2397 5.26087L9.97508 6.76153C9.93855 6.9687 9.74096 7.10708 9.53376 7.07054C9.32656 7.03401 9.18822 6.83639 9.22475 6.62923L9.48936 5.12857C9.52589 4.9214 9.72347 4.78302 9.93067 4.81956ZM7.01817 8.17429C7.22536 8.21083 7.36371 8.40844 7.32718 8.61561L7.06258 10.1163C7.02605 10.3234 6.82845 10.4618 6.62126 10.4253C6.41406 10.3887 6.27572 10.1911 6.31225 9.98397L6.57685 8.48331C6.61338 8.27614 6.81097 8.13776 7.01817 8.17429Z" fill="#FAFAFA"/>
</g>
<defs>
<filter id="filter0_ddddii_689_2148" x="3.06055" y="4.23462" width="21.4746" height="20.3887" filterUnits="userSpaceOnUse" color-interpolation-filters="sRGB">
<feFlood flood-opacity="0" result="BackgroundImageFix"/>
<feColorMatrix in="SourceAlpha" type="matrix" values="0 0 0 0 0 0 0 0 0 0 0 0 0 0 0 0 0 0 127 0" result="hardAlpha"/>
<feOffset dx="1" dy="1"/>
<feGaussianBlur stdDeviation="1.5"/>
<feColorMatrix type="matrix" values="0 0 0 0 0.384314 0 0 0 0 0.384314 0 0 0 0 0.384314 0 0 0 0.4 0"/>
<feBlend mode="normal" in2="BackgroundImageFix" result="effect1_dropShadow_689_2148"/>
<feColorMatrix in="SourceAlpha" type="matrix" values="0 0 0 0 0 0 0 0 0 0 0 0 0 0 0 0 0 0 127 0" result="hardAlpha"/>
<feOffset dx="-1" dy="-1"/>
<feGaussianBlur stdDeviation="1"/>
<feColorMatrix type="matrix" values="0 0 0 0 0.980392 0 0 0 0 0.980392 0 0 0 0 0.980392 0 0 0 0.3 0"/>
<feBlend mode="normal" in2="effect1_dropShadow_689_2148" result="effect2_dropShadow_689_2148"/>
<feColorMatrix in="SourceAlpha" type="matrix" values="0 0 0 0 0 0 0 0 0 0 0 0 0 0 0 0 0 0 127 0" result="hardAlpha"/>
<feOffset dx="1" dy="-1"/>
<feGaussianBlur stdDeviation="1"/>
<feColorMatrix type="matrix" values="0 0 0 0 0.384314 0 0 0 0 0.384314 0 0 0 0 0.384314 0 0 0 0.2 0"/>
<feBlend mode="normal" in2="effect2_dropShadow_689_2148" result="effect3_dropShadow_689_2148"/>
<feColorMatrix in="SourceAlpha" type="matrix" values="0 0 0 0 0 0 0 0 0 0 0 0 0 0 0 0 0 0 127 0" result="hardAlpha"/>
<feOffset dx="-1" dy="1"/>
<feGaussianBlur stdDeviation="1"/>
<feColorMatrix type="matrix" values="0 0 0 0 0.384314 0 0 0 0 0.384314 0 0 0 0 0.384314 0 0 0 0.2 0"/>
<feBlend mode="normal" in2="effect3_dropShadow_689_2148" result="effect4_dropShadow_689_2148"/>
<feBlend mode="normal" in="SourceGraphic" in2="effect4_dropShadow_689_2148" result="shape"/>
<feColorMatrix in="SourceAlpha" type="matrix" values="0 0 0 0 0 0 0 0 0 0 0 0 0 0 0 0 0 0 127 0" result="hardAlpha"/>
<feOffset dx="-1" dy="-1"/>
<feGaussianBlur stdDeviation="1"/>
<feComposite in2="hardAlpha" operator="arithmetic" k2="-1" k3="1"/>
<feColorMatrix type="matrix" values="0 0 0 0 0.384314 0 0 0 0 0.384314 0 0 0 0 0.384314 0 0 0 0.2 0"/>
<feBlend mode="normal" in2="shape" result="effect5_innerShadow_689_2148"/>
<feColorMatrix in="SourceAlpha" type="matrix" values="0 0 0 0 0 0 0 0 0 0 0 0 0 0 0 0 0 0 127 0" result="hardAlpha"/>
<feOffset/>
<feGaussianBlur stdDeviation="2"/>
<feComposite in2="hardAlpha" operator="arithmetic" k2="-1" k3="1"/>
<feColorMatrix type="matrix" values="0 0 0 0 0.980392 0 0 0 0 0.980392 0 0 0 0 0.980392 0 0 0 0.2 0"/>
<feBlend mode="normal" in2="effect5_innerShadow_689_2148" result="effect6_innerShadow_689_2148"/>
</filter>
<linearGradient id="paint0_linear_689_2148" x1="4.93164" y1="19.2654" x2="21.1288" y2="7.44328" gradientUnits="userSpaceOnUse">
<stop stop-color="#FAFAFA"/>
<stop offset="1" stop-color="#E9E9E9"/>
</linearGradient>
<clipPath id="clip0_689_2148">
<rect width="21.5019" height="21.2647" fill="white" transform="translate(0.960938 21.9773) rotate(-80)"/>
</clipPath>
</defs>
</svg>
