<svg width="288" height="192" viewBox="0 0 288 192" fill="none" xmlns="http://www.w3.org/2000/svg">
<path d="M225.65 115C222.889 115 220.65 117.239 220.65 120C220.65 122.761 222.889 125 225.65 125C228.412 125 230.65 122.761 230.65 120C230.65 117.239 228.412 115 225.65 115Z" fill="#FF7900"/>
<path d="M64.6504 79C62.4413 79 60.6504 80.7909 60.6504 83C60.6504 85.2091 62.4413 87 64.6504 87C66.8595 87 68.6504 85.2091 68.6504 83C68.6504 80.7909 66.8595 79 64.6504 79Z" fill="#FF7900"/>
<path d="M84.1504 155C81.6651 155 79.6504 152.985 79.6504 150.5C79.6504 148.015 81.6651 146 84.1504 146C86.6357 146 88.6504 148.015 88.6504 150.5C88.6504 152.985 86.6357 155 84.1504 155Z" fill="#FF7900"/>
<path d="M200.65 98C199.546 98 198.65 97.1046 198.65 96C198.65 94.8954 199.546 94 200.65 94C201.755 94 202.65 94.8954 202.65 96C202.65 97.1046 201.755 98 200.65 98Z" fill="#FF7900"/>
<path d="M76.1504 43C74.7697 43 73.6504 41.6569 73.6504 40C73.6504 38.3431 74.7697 37 76.1504 37C77.5311 37 78.6504 38.3431 78.6504 40C78.6504 41.6569 77.5311 43 76.1504 43Z" fill="#FF7900"/>
<path d="M162.65 160C160.994 160 159.65 158.657 159.65 157C159.65 155.343 160.994 154 162.65 154C164.307 154 165.65 155.343 165.65 157C165.65 158.657 164.307 160 162.65 160Z" fill="#FF7900"/>
<path d="M212.65 75C209.889 75 207.65 72.7614 207.65 70C207.65 67.2386 209.889 65 212.65 65C215.412 65 217.65 67.2386 217.65 70C217.65 72.7614 215.412 75 212.65 75Z" fill="#FF7900"/>
<path d="M98.6504 47C96.4413 47 94.6504 45.2091 94.6504 43C94.6504 40.7909 96.4413 39 98.6504 39C100.86 39 102.65 40.7909 102.65 43C102.65 45.2091 100.86 47 98.6504 47Z" fill="#FF7900"/>
<path d="M246.65 142C244.994 142 243.65 140.881 243.65 139.5C243.65 138.119 244.994 137 246.65 137C248.307 137 249.65 138.119 249.65 139.5C249.65 140.881 248.307 142 246.65 142Z" fill="#FF7900"/>
<path d="M138.972 159.732C139.863 163.057 137.889 166.475 134.564 167.366C131.239 168.257 127.821 166.284 126.93 162.958C126.039 159.633 128.012 156.215 131.337 155.324C134.663 154.433 138.081 156.407 138.972 159.732Z" fill="#FF7900"/>
<path d="M88.2692 102H88.3469C88.8067 108.801 93.6504 108.906 93.6504 108.906C93.6504 108.906 88.3091 109.014 88.3091 116.873C88.3091 109.014 82.9679 108.906 82.9679 108.906C82.9679 108.906 87.8097 108.801 88.2692 102ZM72.4223 124.925H72.4628C72.703 128.618 75.2356 128.674 75.2356 128.674C75.2356 128.674 72.4432 128.734 72.4432 133C72.4432 128.734 69.6504 128.674 69.6504 128.674C69.6504 128.674 72.182 128.618 72.4223 124.925Z" fill="#FF7900"/>
<path d="M124.65 92V77.8572C124.65 67.4434 133.158 59 143.65 59C154.143 59 162.65 67.4434 162.65 77.8572V92" stroke="#FFDFC5" stroke-width="12" stroke-linecap="round" stroke-linejoin="round"/>
<path fill-rule="evenodd" clip-rule="evenodd" d="M171.507 142H115.793C109.637 142 104.65 136.955 104.65 130.727V91.2726C104.65 85.0447 109.637 80 115.793 80H171.507C177.664 80 182.65 85.0447 182.65 91.2726V130.727C182.65 136.955 177.664 142 171.507 142Z" fill="#FFDFC5"/>
<path d="M142.999 126V110.332M142.98 101C140.22 101 137.98 103.064 138 105.608C138 108.152 140.24 110.216 143 110.216C145.76 110.216 148 108.152 148 105.608C148 103.064 145.76 101 142.98 101Z" stroke="#FF7900" stroke-width="10" stroke-linecap="round" stroke-linejoin="round"/>
<path d="M106.571 32H50.7297C44.0585 32 38.6504 37.3726 38.6504 44C38.6504 50.6274 44.0585 56 50.7297 56H106.571C113.242 56 118.65 50.6274 118.65 44C118.65 37.3726 113.242 32 106.571 32Z" fill="#FF7900"/>
<path d="M53.4639 48H55.2118L55.0428 45.3127L57.1483 46.8195L58.0189 45.1805L55.7578 44L58.0189 42.8195L57.1483 41.1805L55.0428 42.6877L55.2118 40H53.4639L53.6265 42.6877L51.5213 41.1805L50.6504 42.8195L52.9182 44L50.6504 45.1805L51.5213 46.8195L53.6265 45.3127L53.4639 48ZM65.622 48H67.3699L67.2009 45.3127L69.3061 46.8195L70.1767 45.1805L67.9156 44L70.1767 42.8195L69.3061 41.1805L67.2009 42.6877L67.3699 40H65.622L65.7843 42.6877L63.6791 41.1805L62.8085 42.8195L65.076 44L62.8085 45.1805L63.6791 46.8195L65.7843 45.3127L65.622 48ZM77.7798 48H79.5277L79.3587 45.3127L81.4639 46.8195L82.3348 45.1805L80.0734 44L82.3348 42.8195L81.4639 41.1805L79.3587 42.6877L79.5277 40H77.7798L77.9421 42.6877L75.8369 41.1805L74.9663 42.8195L77.2341 44L74.9663 45.1805L75.8369 46.8195L77.9421 45.3127L77.7798 48ZM89.9376 48H91.6855L91.5165 45.3127L93.622 46.8195L94.4926 45.1805L92.2312 44L94.4926 42.8195L93.622 41.1805L91.5165 42.6877L91.6855 40H89.9376L90.1002 42.6877L87.995 41.1805L87.1241 42.8195L89.3919 44L87.1241 45.1805L87.995 46.8195L90.1002 45.3127L89.9376 48ZM102.095 48H103.844L103.675 45.3127L105.78 46.8195L106.65 45.1805L104.389 44L106.65 42.8195L105.78 41.1805L103.675 42.6877L103.844 40H102.095L102.258 42.6877L100.153 41.1805L99.2819 42.8195L101.55 44L99.2819 45.1805L100.153 46.8195L102.258 45.3127L102.095 48Z" fill="#FFDFC5"/>
<path fill-rule="evenodd" clip-rule="evenodd" d="M215.65 137.481C215.65 151.134 205.411 163.9 191.651 167C177.889 163.9 167.65 151.134 167.65 137.481V126.756C167.651 125.562 168.006 124.395 168.67 123.403C169.334 122.412 170.277 121.642 171.379 121.191L186.379 115.04C189.758 113.653 193.543 113.653 196.922 115.04L211.921 121.191C213.023 121.642 213.966 122.412 214.631 123.404C215.295 124.395 215.65 125.562 215.65 126.756V137.481Z" fill="#FF7900"/>
<path d="M200.65 135L190.025 146L183.65 139.4" stroke="#FFDFC5" stroke-width="3" stroke-linecap="round" stroke-linejoin="round"/>
</svg>
