<svg width="248" height="198" viewBox="0 0 248 198" fill="none" xmlns="http://www.w3.org/2000/svg">
<path fill-rule="evenodd" clip-rule="evenodd" d="M115.347 130.165V132.014C115.347 138.424 120.505 143.623 126.87 143.623C133.235 143.623 138.393 138.424 138.393 132.009V130.16" fill="white"/>
<path fill-rule="evenodd" clip-rule="evenodd" d="M137.269 39.2808V34.2265C137.269 28.6545 132.617 24.1343 126.87 24.1343C121.123 24.1343 116.471 28.6545 116.471 34.2265V39.2808" fill="white"/>
<path d="M137.269 39.2808V34.2265C137.269 28.6545 132.617 24.1343 126.87 24.1343C121.123 24.1343 116.471 28.6545 116.471 34.2265V39.2808" fill="#FF7900"/>
<path fill-rule="evenodd" clip-rule="evenodd" d="M87.8755 71.737C87.8755 53.8075 102.426 39.2805 120.369 39.2805H133.37C151.32 39.2805 165.864 53.8146 165.864 71.737V91.7723C165.865 95.5714 167.377 99.2146 170.066 101.901L174.663 106.493C177.352 109.179 178.864 112.822 178.865 116.621C178.865 124.1 172.798 130.159 165.312 130.159H88.4276C80.9407 130.159 74.874 124.1 74.874 116.621C74.8752 112.822 76.3867 109.179 79.0762 106.493L83.6731 101.901C86.3626 99.2146 87.8741 95.5714 87.8755 91.7723V71.737Z" fill="#FF7900"/>
<path d="M115.591 60.0369H52.1459C47.9345 60.0369 44.5205 63.4637 44.5205 67.6909V82.6758C44.5205 86.903 47.9345 90.3298 52.1459 90.3298H115.591C119.802 90.3298 123.216 86.903 123.216 82.6758V67.6909C123.216 63.4637 119.802 60.0369 115.591 60.0369Z" fill="#FAFAFA" stroke="#666666" stroke-width="2"/>
<path d="M113.552 69.5737H72.7337C71.7427 69.5737 70.9395 70.3272 70.9395 71.2567C70.9395 72.1861 71.7427 72.9396 72.7337 72.9396H113.552C114.543 72.9396 115.346 72.1861 115.346 71.2567C115.346 70.3272 114.543 69.5737 113.552 69.5737Z" fill="#DDDDDD"/>
<path d="M97.8156 77.427H72.7312C71.7416 77.427 70.9395 78.1805 70.9395 79.1099C70.9395 80.0394 71.7416 80.7929 72.7312 80.7929H97.8156C98.8051 80.7929 99.6073 80.0394 99.6073 79.1099C99.6073 78.1805 98.8051 77.427 97.8156 77.427Z" fill="#DDDDDD"/>
<path fill-rule="evenodd" clip-rule="evenodd" d="M57.1678 83.0373C52.977 83.0373 49.5791 79.5207 49.5791 75.1836C49.5791 70.8462 52.977 67.3298 57.1678 67.3298C61.3585 67.3298 64.7562 70.8462 64.7562 75.1836C64.7562 79.5207 61.3585 83.0373 57.1678 83.0373Z" fill="#FF7900"/>
<path d="M59.6977 74.0613L56.5365 77.4272L54.6387 75.408" stroke="white" stroke-width="2" stroke-linecap="round" stroke-linejoin="round"/>
<path fill-rule="evenodd" clip-rule="evenodd" d="M147.668 56.671C139.131 56.671 132.21 49.638 132.21 40.9634C132.21 32.2892 139.131 25.2561 147.668 25.2561C156.205 25.2561 163.126 32.2892 163.126 40.9634C163.126 49.638 156.205 56.671 147.668 56.671Z" fill="#FFDFC5"/>
<path d="M150.197 34.793H147.694L144.576 36.8154V39.2346L147.46 37.3824H147.534V47.6955H150.197V34.793Z" fill="#FF7900"/>
<g filter="url(#filter0_d_466_4741)">
<path d="M115.347 130.165V132.014C115.347 138.424 120.505 143.623 126.87 143.623C133.235 143.623 138.393 138.424 138.393 132.009V130.16" fill="#FFA765"/>
</g>
<defs>
<filter id="filter0_d_466_4741" x="65.3467" y="84.1597" width="123.047" height="113.464" filterUnits="userSpaceOnUse" color-interpolation-filters="sRGB">
<feFlood flood-opacity="0" result="BackgroundImageFix"/>
<feColorMatrix in="SourceAlpha" type="matrix" values="0 0 0 0 0 0 0 0 0 0 0 0 0 0 0 0 0 0 127 0" result="hardAlpha"/>
<feOffset dy="4"/>
<feGaussianBlur stdDeviation="25"/>
<feComposite in2="hardAlpha" operator="out"/>
<feColorMatrix type="matrix" values="0 0 0 0 0.101961 0 0 0 0 0.101961 0 0 0 0 0.101961 0 0 0 0.1 0"/>
<feBlend mode="normal" in2="BackgroundImageFix" result="effect1_dropShadow_466_4741"/>
<feBlend mode="normal" in="SourceGraphic" in2="effect1_dropShadow_466_4741" result="shape"/>
</filter>
</defs>
</svg>
