<svg width="40" height="40" viewBox="0 0 40 40" fill="none" xmlns="http://www.w3.org/2000/svg">
<path d="M35 18.75H29.8225C29.2634 16.5997 27.3228 15 25 15C22.6772 15 20.7366 16.5997 20.1775 18.75H5C4.30969 18.75 3.75 19.3097 3.75 20C3.75 20.6903 4.30969 21.25 5 21.25H20.1775C20.7366 23.4003 22.6772 25 25 25C27.3228 25 29.2634 23.4003 29.8225 21.25H35C35.6903 21.25 36.25 20.6903 36.25 20C36.25 19.3097 35.6903 18.75 35 18.75ZM25 22.5C23.6213 22.5 22.5 21.3787 22.5 20C22.5 18.6212 23.6213 17.5 25 17.5C26.3787 17.5 27.5 18.6212 27.5 20C27.5 21.3787 26.3787 22.5 25 22.5Z" fill="white"/>
<path fill-rule="evenodd" clip-rule="evenodd" d="M19.8225 7.5H35C35.6903 7.5 36.25 8.05969 36.25 8.75C36.25 9.44031 35.6903 10 35 10H19.8225C19.2634 12.1503 17.3228 13.75 15 13.75C12.6772 13.75 10.7366 12.1503 10.1775 10H5C4.30969 10 3.75 9.44031 3.75 8.75C3.75 8.05969 4.30969 7.5 5 7.5H10.1775C10.7366 5.34969 12.6772 3.75 15 3.75C17.3228 3.75 19.2634 5.34969 19.8225 7.5ZM12.5 8.75C12.5 10.1287 13.6213 11.25 15 11.25C16.3787 11.25 17.5 10.1287 17.5 8.75C17.5 7.37125 16.3787 6.25 15 6.25C13.6213 6.25 12.5 7.37125 12.5 8.75ZM19.8225 30H35C35.6903 30 36.25 30.5597 36.25 31.25C36.25 31.9403 35.6903 32.5 35 32.5H19.8225C19.2634 34.6503 17.3228 36.25 15 36.25C12.6772 36.25 10.7366 34.6503 10.1775 32.5H5C4.30969 32.5 3.75 31.9403 3.75 31.25C3.75 30.5597 4.30969 30 5 30H10.1775C10.7366 27.8497 12.6772 26.25 15 26.25C17.3228 26.25 19.2634 27.8497 19.8225 30ZM12.5 31.25C12.5 32.6287 13.6213 33.75 15 33.75C16.3787 33.75 17.5 32.6287 17.5 31.25C17.5 29.8713 16.3787 28.75 15 28.75C13.6213 28.75 12.5 29.8713 12.5 31.25Z" fill="#FF6600"/>
</svg>
