<svg width="30" height="31" viewBox="0 0 30 31" fill="none" xmlns="http://www.w3.org/2000/svg">
<path fill-rule="evenodd" clip-rule="evenodd" d="M10.2859 0C8.59365 0 6.97073 0.677718 5.77411 1.88406L0 7.70508V10.3696C0 12.252 0.80208 13.9456 2.08051 15.1219C0.80208 16.2983 0 17.9919 0 19.8743V22.5388L5.77411 28.3598C6.97073 29.5662 8.59365 30.2439 10.2859 30.2439C12.1532 30.2439 13.8331 29.4353 15 28.1465C16.1668 29.4353 17.8468 30.2439 19.7141 30.2439C21.4064 30.2439 23.0293 29.5662 24.2259 28.3598L30 22.5388V19.8743C30 17.9919 29.198 16.2983 27.9195 15.1219C29.198 13.9456 30 12.252 30 10.3696V7.70508L24.2259 1.88406C23.0293 0.677718 21.4064 0 19.7141 0C17.8468 0 16.1668 0.808599 15 2.09742C13.8331 0.808599 12.1532 0 10.2859 0ZM19.3191 15.1219C19.2472 15.0558 19.1766 14.9878 19.1075 14.9181L15 10.7773L10.8926 14.9181C10.8234 14.9878 10.7528 15.0558 10.6809 15.1219C10.7528 15.1881 10.8234 15.2561 10.8926 15.3258L15 19.4666L19.1075 15.3258C19.1766 15.2561 19.2472 15.1881 19.3191 15.1219ZM16.6667 22.5388V23.8113C16.6667 25.508 18.031 26.8835 19.7141 26.8835C20.5223 26.8835 21.2974 26.5598 21.8689 25.9837L26.6667 21.1468V19.8743C26.6667 18.1776 25.3023 16.8021 23.6193 16.8021C22.8111 16.8021 22.036 17.1258 21.4645 17.702L16.6667 22.5388ZM13.3333 22.5388L8.53553 17.702C7.96403 17.1258 7.18893 16.8021 6.38071 16.8021C4.69769 16.8021 3.33333 18.1776 3.33333 19.8743V21.1468L8.13113 25.9837C8.70263 26.5598 9.47775 26.8835 10.2859 26.8835C11.9689 26.8835 13.3333 25.508 13.3333 23.8113V22.5388ZM13.3333 6.43259V7.70508L8.53553 12.5419C7.96403 13.1181 7.18893 13.4417 6.38071 13.4417C4.69769 13.4417 3.33333 12.0662 3.33333 10.3696V9.09705L8.13113 4.26024C8.70263 3.68411 9.47775 3.36044 10.2859 3.36044C11.9689 3.36044 13.3333 4.73588 13.3333 6.43259ZM21.4645 12.5419L16.6667 7.70508V6.43259C16.6667 4.73588 18.031 3.36044 19.7141 3.36044C20.5223 3.36044 21.2974 3.68411 21.8689 4.26024L26.6667 9.09705V10.3696C26.6667 12.0662 25.3023 13.4417 23.6193 13.4417C22.8111 13.4417 22.036 13.1181 21.4645 12.5419Z" fill="#FF630B"/>
</svg>
