<svg width="40" height="40" viewBox="0 0 40 40" fill="none" xmlns="http://www.w3.org/2000/svg">
<path d="M5.43224 31.3449C5.89451 31.798 6.63655 31.7903 7.08945 31.3281C7.54242 30.8658 7.53484 30.1239 7.07265 29.6709C4.02316 26.6826 2.34377 22.8181 2.34377 18.789C2.34377 10.3887 9.24806 3.55447 17.7345 3.55447C18.3817 3.55447 18.9064 3.02977 18.9064 2.38258C18.9064 1.73539 18.3817 1.21069 17.7345 1.21069C13.0325 1.21069 8.59235 3.0372 5.23216 6.35387C1.85814 9.68406 0 14.1003 0 18.789C0 21.1739 0.505864 23.5103 1.50345 25.7331C2.44002 27.82 3.76191 29.7081 5.43224 31.3449Z" fill="#FF6600"/>
<path d="M35.3128 18.789C35.3128 15.2339 34.2567 11.8088 32.2584 8.88412C30.8487 6.82074 29.039 5.09939 26.9403 3.80946L27.413 3.68281C28.0382 3.51531 28.4091 2.87273 28.2416 2.24757C28.074 1.6224 27.4317 1.25123 26.8063 1.41896L23.6047 2.27686C22.9795 2.44436 22.6086 3.08695 22.7761 3.71211L23.6339 6.91371C23.7742 7.4373 24.2477 7.78262 24.7651 7.78262C25.5356 7.78262 26.0971 7.05105 25.8978 6.30714L25.7729 5.84088C30.2119 8.58763 32.9691 13.438 32.9691 18.789C32.9691 27.1893 26.1349 34.0235 17.7345 34.0235H1.17189C0.524693 34.0235 0 34.5482 0 35.1954C0 35.8426 0.524693 36.3673 1.17189 36.3673H17.7345C22.4299 36.3673 26.8442 34.5388 30.1643 31.2187C33.4844 27.8986 35.3128 23.4843 35.3128 18.789Z" fill="#FF6600"/>
<path d="M7.1875 18.7889C7.1875 24.6045 11.9189 29.3359 17.7345 29.3359C23.5501 29.3359 28.2815 24.6045 28.2815 18.7889C28.2815 12.9733 23.5501 8.24194 17.7345 8.24194C11.9189 8.24194 7.1875 12.9733 7.1875 18.7889ZM25.9377 18.7889C25.9377 23.3122 22.2577 26.9921 17.7345 26.9921C13.2112 26.9921 9.53127 23.3122 9.53127 18.7889C9.53127 14.2657 13.2112 10.5857 17.7345 10.5857C22.2577 10.5857 25.9377 14.2657 25.9377 18.7889Z" fill="#FF6600"/>
<path d="M15.0975 19.0821C14.6121 18.5967 13.825 18.5967 13.3396 19.0821C12.8542 19.5675 12.8542 20.3545 13.3396 20.8399L15.6834 23.1837C15.9261 23.4264 16.2443 23.5478 16.5623 23.5478C16.8804 23.5478 17.1986 23.4264 17.4412 23.1837L22.1288 18.4961C22.6142 18.0107 22.6142 17.2237 22.1288 16.7383C21.6434 16.2529 20.8563 16.2529 20.371 16.7383L16.5623 20.5469L15.0975 19.0821Z" fill="white"/>
</svg>
