<svg width="288" height="192" viewBox="0 0 288 192" fill="none" xmlns="http://www.w3.org/2000/svg">
<path d="M209.439 82.4028C200.007 88.3777 186.142 83.4133 186.142 83.4133C186.142 83.4133 187.576 68.7646 197.013 62.7964C206.444 56.8219 220.304 61.7796 220.304 61.7796C220.304 61.7796 218.87 76.4283 209.439 82.4028Z" fill="#FFDFC5"/>
<path d="M186.267 178.916C186.09 178.846 185.946 178.713 185.864 178.542C185.782 178.371 185.767 178.175 185.822 177.994C185.878 177.812 186 177.658 186.164 177.563C186.328 177.467 186.522 177.437 186.707 177.478C188.533 177.896 190.371 178.263 192.218 178.577C192.315 178.594 192.408 178.63 192.492 178.683C192.575 178.736 192.648 178.804 192.705 178.885C192.762 178.966 192.802 179.057 192.824 179.154C192.846 179.25 192.848 179.35 192.831 179.447C192.797 179.644 192.686 179.819 192.523 179.934C192.361 180.049 192.159 180.096 191.962 180.063C190.087 179.743 188.22 179.371 186.366 178.948C186.333 178.938 186.299 178.929 186.267 178.916ZM197.418 180.84C197.247 180.774 197.106 180.648 197.021 180.485C196.937 180.322 196.915 180.134 196.959 179.956C197.003 179.778 197.111 179.622 197.262 179.518C197.413 179.413 197.596 179.368 197.778 179.389C199.644 179.611 201.524 179.788 203.368 179.914C203.567 179.928 203.752 180.021 203.883 180.171C204.015 180.321 204.081 180.517 204.068 180.716C204.055 180.915 203.963 181.101 203.813 181.233C203.663 181.364 203.466 181.431 203.267 181.418C201.395 181.292 199.49 181.111 197.599 180.886C197.537 180.877 197.476 180.862 197.418 180.84ZM208.694 181.594C208.529 181.53 208.393 181.41 208.307 181.256C208.222 181.102 208.194 180.922 208.227 180.749C208.261 180.576 208.354 180.42 208.491 180.309C208.627 180.197 208.799 180.137 208.975 180.139C210.844 180.163 212.714 180.131 214.581 180.043C214.68 180.038 214.778 180.053 214.871 180.086C214.964 180.12 215.05 180.171 215.123 180.238C215.196 180.304 215.255 180.385 215.297 180.474C215.339 180.564 215.363 180.661 215.367 180.759C215.387 181.175 215.066 181.528 214.651 181.548C212.79 181.638 210.874 181.67 208.955 181.644C208.865 181.644 208.777 181.628 208.694 181.594ZM219.977 181.048C219.848 180.998 219.735 180.914 219.651 180.805C219.567 180.696 219.514 180.566 219.5 180.429C219.488 180.331 219.497 180.231 219.524 180.136C219.551 180.041 219.597 179.952 219.658 179.875C219.72 179.798 219.796 179.733 219.883 179.685C219.969 179.637 220.064 179.607 220.162 179.596C222.044 179.379 223.905 179.096 225.692 178.756C225.79 178.737 225.89 178.737 225.986 178.757C226.083 178.777 226.175 178.816 226.257 178.872C226.339 178.928 226.409 178.999 226.463 179.082C226.516 179.165 226.553 179.258 226.571 179.355C226.609 179.551 226.567 179.754 226.455 179.92C226.343 180.085 226.17 180.199 225.974 180.237C224.105 180.593 222.223 180.879 220.332 181.096C220.211 181.106 220.09 181.09 219.977 181.048ZM231.061 178.909C230.951 178.867 230.852 178.8 230.773 178.713C230.694 178.626 230.637 178.521 230.606 178.407C230.553 178.214 230.578 178.008 230.677 177.834C230.775 177.66 230.938 177.532 231.131 177.478C232.922 176.977 234.688 176.392 236.424 175.726C236.611 175.655 236.818 175.66 237 175.741C237.183 175.823 237.325 175.973 237.397 176.159C237.545 176.547 237.351 176.982 236.963 177.134C235.183 177.817 233.372 178.416 231.535 178.929C231.379 178.974 231.213 178.967 231.061 178.909ZM241.574 174.84C241.4 174.774 241.257 174.645 241.174 174.478C241.084 174.299 241.068 174.092 241.13 173.902C241.192 173.712 241.327 173.555 241.505 173.464C243.156 172.622 244.758 171.687 246.304 170.665C246.386 170.61 246.479 170.572 246.576 170.553C246.673 170.534 246.773 170.535 246.87 170.554C246.967 170.574 247.059 170.613 247.141 170.668C247.223 170.723 247.293 170.794 247.348 170.876C247.458 171.043 247.498 171.247 247.458 171.443C247.418 171.639 247.302 171.811 247.136 171.922C245.543 172.977 243.891 173.941 242.189 174.809C242.094 174.856 241.991 174.883 241.885 174.889C241.779 174.894 241.674 174.878 241.574 174.84ZM250.95 168.608C250.828 168.56 250.721 168.482 250.638 168.381C250.556 168.28 250.501 168.159 250.48 168.03C250.458 167.901 250.47 167.769 250.515 167.646C250.56 167.524 250.636 167.415 250.735 167.33C252.143 166.13 253.477 164.845 254.729 163.484C254.796 163.411 254.877 163.352 254.966 163.311C255.056 163.269 255.153 163.245 255.252 163.241C255.351 163.237 255.449 163.252 255.542 163.286C255.635 163.32 255.72 163.372 255.793 163.439C255.866 163.506 255.925 163.587 255.966 163.676C256.008 163.766 256.032 163.863 256.036 163.962C256.04 164.06 256.025 164.159 255.991 164.252C255.957 164.345 255.905 164.43 255.838 164.503C254.544 165.911 253.166 167.238 251.711 168.477C251.488 168.662 251.197 168.702 250.95 168.608ZM258.57 160.328C258.462 160.287 258.365 160.221 258.287 160.137C258.209 160.052 258.151 159.951 258.118 159.84C258.085 159.73 258.078 159.613 258.098 159.5C258.117 159.386 258.162 159.278 258.229 159.185C259.311 157.682 260.307 156.12 261.215 154.506C261.263 154.42 261.328 154.344 261.406 154.283C261.484 154.221 261.573 154.176 261.669 154.15C261.764 154.123 261.864 154.116 261.962 154.128C262.06 154.14 262.155 154.172 262.241 154.221C262.327 154.27 262.403 154.335 262.464 154.413C262.525 154.491 262.57 154.58 262.597 154.676C262.624 154.771 262.631 154.871 262.619 154.969C262.607 155.068 262.576 155.163 262.527 155.249C261.592 156.912 260.564 158.522 259.45 160.071C259.351 160.204 259.211 160.3 259.053 160.347C258.894 160.393 258.724 160.386 258.57 160.328ZM264.178 150.548L264.128 150.529C264.038 150.487 263.957 150.428 263.89 150.356C263.823 150.283 263.771 150.197 263.738 150.105C263.704 150.012 263.689 149.913 263.693 149.814C263.697 149.715 263.721 149.618 263.763 149.529C264.547 147.841 265.256 146.119 265.889 144.369C265.92 144.274 265.971 144.186 266.037 144.11C266.103 144.035 266.183 143.974 266.274 143.93C266.364 143.886 266.462 143.861 266.562 143.855C266.662 143.85 266.762 143.865 266.857 143.898C266.951 143.932 267.038 143.985 267.112 144.053C267.185 144.121 267.245 144.203 267.287 144.294C267.328 144.385 267.351 144.484 267.354 144.584C267.357 144.684 267.34 144.784 267.304 144.878C267.162 145.275 267.009 145.682 266.855 146.085C266.324 147.464 265.747 148.825 265.126 150.166C265.045 150.337 264.902 150.471 264.726 150.542C264.551 150.613 264.355 150.615 264.178 150.548ZM267.95 139.913C267.78 139.847 267.639 139.722 267.555 139.56C267.47 139.398 267.446 139.212 267.488 139.034C267.932 137.182 268.249 135.343 268.431 133.569C268.451 133.371 268.549 133.189 268.704 133.062C268.858 132.936 269.056 132.876 269.255 132.896C269.353 132.906 269.449 132.936 269.535 132.983C269.622 133.03 269.699 133.094 269.761 133.171C269.824 133.248 269.87 133.336 269.898 133.431C269.926 133.525 269.935 133.625 269.925 133.723C269.735 135.564 269.406 137.467 268.948 139.384C268.901 139.579 268.78 139.746 268.609 139.851C268.439 139.955 268.234 139.988 268.04 139.941C268.013 139.934 267.979 139.924 267.95 139.913ZM269.053 128.711C268.918 128.658 268.801 128.568 268.715 128.451C268.63 128.334 268.58 128.195 268.572 128.05C268.464 126.177 268.192 124.347 267.758 122.615C267.709 122.421 267.739 122.216 267.842 122.044C267.944 121.873 268.11 121.749 268.304 121.7C268.4 121.676 268.499 121.67 268.597 121.685C268.695 121.699 268.789 121.732 268.874 121.783C268.958 121.834 269.032 121.901 269.091 121.98C269.15 122.059 269.193 122.15 269.217 122.245C269.674 124.068 269.961 125.991 270.075 127.961C270.08 128.06 270.067 128.159 270.034 128.252C270.001 128.346 269.951 128.432 269.885 128.506C269.819 128.579 269.739 128.64 269.65 128.683C269.561 128.726 269.465 128.751 269.366 128.756C269.255 128.765 269.15 128.748 269.053 128.711ZM246.32 119.06C246.142 118.992 245.996 118.857 245.913 118.685C245.83 118.513 245.816 118.315 245.874 118.133C245.933 117.942 246.066 117.783 246.243 117.69C246.42 117.597 246.627 117.578 246.818 117.638C248.484 118.161 250.329 118.436 252.153 118.433C252.35 118.438 252.537 118.52 252.674 118.661C252.812 118.802 252.889 118.991 252.888 119.188C252.888 119.385 252.811 119.574 252.673 119.715C252.535 119.856 252.348 119.937 252.151 119.941C250.176 119.944 248.175 119.643 246.364 119.077C246.351 119.069 246.332 119.065 246.32 119.06ZM241.415 116.363C241.326 116.328 241.243 116.277 241.172 116.213C239.324 114.488 238.602 112.433 239.145 110.427C239.197 110.235 239.323 110.071 239.496 109.971C239.669 109.871 239.874 109.844 240.067 109.896C240.162 109.922 240.251 109.966 240.33 110.027C240.408 110.087 240.473 110.163 240.522 110.248C240.571 110.334 240.603 110.429 240.615 110.527C240.628 110.625 240.621 110.725 240.594 110.82C240.096 112.668 241.189 114.174 242.194 115.113C242.321 115.231 242.404 115.391 242.427 115.563C242.45 115.736 242.412 115.911 242.32 116.059C242.228 116.207 242.087 116.318 241.922 116.374C241.757 116.429 241.577 116.426 241.415 116.363ZM257.439 119.045C257.333 119.005 257.237 118.94 257.159 118.857C257.081 118.774 257.023 118.674 256.99 118.565C256.931 118.375 256.95 118.168 257.042 117.991C257.135 117.814 257.293 117.681 257.484 117.62C259.206 117.081 260.829 116.266 262.29 115.206C262.37 115.148 262.46 115.106 262.556 115.082C262.652 115.059 262.752 115.055 262.85 115.071C262.948 115.086 263.041 115.121 263.125 115.173C263.21 115.224 263.283 115.292 263.341 115.373C263.399 115.453 263.441 115.543 263.464 115.64C263.487 115.736 263.491 115.836 263.475 115.934C263.46 116.032 263.425 116.125 263.373 116.21C263.321 116.294 263.253 116.367 263.173 116.425C261.581 117.582 259.811 118.472 257.933 119.058C257.767 119.113 257.592 119.103 257.439 119.045ZM266.282 117.843C266.105 117.775 265.961 117.644 265.877 117.475C265.07 115.839 264.073 114.303 262.907 112.901C262.844 112.825 262.796 112.737 262.766 112.643C262.737 112.549 262.726 112.449 262.735 112.351C262.744 112.252 262.773 112.157 262.819 112.069C262.865 111.982 262.928 111.904 263.004 111.841C263.079 111.777 263.167 111.73 263.261 111.7C263.355 111.671 263.454 111.66 263.552 111.669C263.651 111.678 263.746 111.706 263.834 111.752C263.921 111.797 263.999 111.86 264.062 111.936C265.303 113.43 266.364 115.065 267.225 116.807C267.409 117.178 267.258 117.633 266.884 117.817C266.687 117.911 266.47 117.915 266.282 117.843ZM243.195 107.138C243.063 107.087 242.948 106.999 242.863 106.886C242.778 106.772 242.727 106.637 242.715 106.495C242.704 106.354 242.732 106.212 242.798 106.086C242.863 105.96 242.962 105.855 243.084 105.783C244.754 104.81 246.694 104.294 248.849 104.252C248.948 104.25 249.046 104.268 249.138 104.304C249.23 104.34 249.314 104.394 249.385 104.463C249.456 104.531 249.512 104.613 249.552 104.704C249.591 104.795 249.612 104.892 249.614 104.991C249.615 105.09 249.598 105.188 249.562 105.28C249.526 105.372 249.472 105.456 249.403 105.527C249.334 105.598 249.252 105.655 249.162 105.695C249.071 105.734 248.974 105.756 248.875 105.757C246.981 105.794 245.288 106.239 243.843 107.083C243.746 107.141 243.637 107.175 243.525 107.185C243.413 107.195 243.3 107.179 243.195 107.138ZM266.432 112.537C266.37 112.512 266.311 112.481 266.256 112.443C266.176 112.384 266.108 112.31 266.057 112.226C266.005 112.141 265.971 112.047 265.956 111.949C265.941 111.851 265.946 111.751 265.969 111.655C265.993 111.558 266.036 111.468 266.094 111.388C267.119 109.989 267.998 108.381 268.703 106.612C268.776 106.429 268.919 106.281 269.1 106.202C269.281 106.122 269.486 106.117 269.671 106.187L269.68 106.19C269.865 106.264 270.014 106.409 270.092 106.592C270.171 106.776 270.174 106.983 270.1 107.168C269.346 109.056 268.407 110.776 267.306 112.278C267.209 112.411 267.071 112.508 266.913 112.555C266.755 112.602 266.586 112.596 266.432 112.537ZM259.101 109.278C259.04 109.254 258.983 109.223 258.93 109.186C257.42 108.101 255.803 107.248 254.144 106.663C253.956 106.596 253.802 106.457 253.716 106.277C253.63 106.096 253.62 105.889 253.687 105.701C253.72 105.608 253.77 105.522 253.837 105.448C253.903 105.375 253.983 105.315 254.072 105.272C254.161 105.23 254.258 105.205 254.357 105.2C254.456 105.195 254.555 105.209 254.648 105.243C256.44 105.876 258.186 106.794 259.81 107.964C260.148 108.208 260.224 108.676 259.983 109.015C259.777 109.298 259.412 109.398 259.101 109.278ZM270.699 102.169C270.534 102.105 270.396 101.985 270.311 101.83C270.225 101.675 270.197 101.495 270.232 101.321C270.566 99.6066 270.791 97.7523 270.9 95.8157C270.912 95.6161 271.002 95.4293 271.151 95.296C271.299 95.1627 271.495 95.0938 271.695 95.1042C271.894 95.1158 272.081 95.206 272.214 95.355C272.347 95.5041 272.415 95.6998 272.404 95.8992C272.292 97.9056 272.059 99.8246 271.709 101.607C271.671 101.804 271.557 101.977 271.391 102.089C271.226 102.2 271.023 102.242 270.827 102.204C270.783 102.197 270.74 102.185 270.699 102.169ZM271.397 90.916C271.26 90.8634 271.142 90.7723 271.057 90.6538C270.971 90.5354 270.922 90.3946 270.915 90.2486C270.828 88.3865 270.666 86.5286 270.432 84.6794C270.407 84.4811 270.462 84.2812 270.585 84.1233C270.707 83.9653 270.887 83.8621 271.085 83.836C271.283 83.8116 271.483 83.8667 271.64 83.9892C271.798 84.1116 271.901 84.2915 271.926 84.4895C272.169 86.4488 272.336 88.3594 272.418 90.1763C272.424 90.3012 272.398 90.4256 272.344 90.5382C272.29 90.6508 272.208 90.7482 272.107 90.8215C272.006 90.8949 271.888 90.9419 271.764 90.9584C271.64 90.9749 271.514 90.9603 271.397 90.916ZM269.916 79.7322C269.802 79.6888 269.7 79.6183 269.62 79.5269C269.539 79.4356 269.482 79.326 269.453 79.2076C269.01 77.4121 268.452 75.6469 267.783 73.9228C267.71 73.7364 267.714 73.5288 267.795 73.3456C267.875 73.1624 268.025 73.0186 268.211 72.9458C268.303 72.9097 268.401 72.8921 268.5 72.894C268.599 72.8959 268.697 72.9174 268.787 72.9571C268.878 72.9968 268.96 73.0541 269.028 73.1255C269.096 73.1969 269.15 73.2812 269.186 73.3734C269.879 75.1588 270.457 76.9869 270.915 78.8464C270.948 78.9799 270.943 79.1197 270.902 79.2509C270.861 79.382 270.785 79.4995 270.682 79.5906C270.579 79.6817 270.454 79.7431 270.319 79.768C270.184 79.793 270.044 79.7806 269.916 79.7322ZM265.852 69.2372C265.684 69.1727 265.545 69.0497 265.46 68.8907C264.579 67.2598 263.608 65.6796 262.551 64.1573C262.494 64.0761 262.454 63.9846 262.433 63.8879C262.412 63.7913 262.41 63.6914 262.428 63.5941C262.446 63.4967 262.482 63.4038 262.536 63.3206C262.589 63.2375 262.659 63.1657 262.74 63.1094C263.08 62.8717 263.551 62.954 263.786 63.2976C264.877 64.866 265.878 66.4949 266.784 68.1763C266.831 68.2634 266.861 68.3589 266.871 68.4574C266.881 68.5558 266.871 68.6553 266.843 68.7501C266.815 68.8449 266.768 68.9331 266.705 69.0097C266.642 69.0863 266.565 69.1498 266.478 69.1965C266.383 69.2481 266.278 69.2785 266.17 69.2855C266.062 69.2925 265.953 69.2761 265.852 69.2372ZM151.1 18.946C150.958 18.8918 150.836 18.7962 150.75 18.6716C150.664 18.5471 150.617 18.3995 150.616 18.248C150.615 18.0484 150.693 17.8564 150.832 17.714C150.972 17.5715 151.163 17.49 151.362 17.4874C152.994 17.4748 154.909 17.5407 157.061 17.6835C157.16 17.6901 157.256 17.7161 157.345 17.76C157.433 17.8038 157.512 17.8647 157.577 17.9391C157.642 18.0135 157.692 18.1 157.724 18.1937C157.755 18.2873 157.768 18.3863 157.761 18.4849C157.748 18.6841 157.656 18.8699 157.506 19.0015C157.355 19.1332 157.159 19.1999 156.96 19.1871C154.847 19.0489 152.965 18.983 151.373 18.9973C151.28 18.9974 151.187 18.98 151.1 18.946ZM259.444 59.9662C259.327 59.9214 259.223 59.8479 259.142 59.7524C257.932 58.3404 256.661 56.9825 255.332 55.6826C255.261 55.6135 255.205 55.5311 255.166 55.4403C255.128 55.3494 255.107 55.2517 255.106 55.1529C255.105 55.0542 255.124 54.9562 255.161 54.8646C255.198 54.7729 255.253 54.6895 255.322 54.6191C255.391 54.5483 255.473 54.4918 255.563 54.4528C255.654 54.4139 255.752 54.3932 255.85 54.3921C255.949 54.3911 256.047 54.4095 256.139 54.4464C256.23 54.4834 256.314 54.5381 256.384 54.6074C257.744 55.9392 259.046 57.329 260.286 58.7729C260.395 58.9003 260.458 59.0602 260.465 59.2274C260.473 59.3946 260.425 59.5597 260.328 59.6965C260.232 59.8333 260.093 59.9341 259.933 59.9829C259.772 60.0317 259.601 60.0258 259.444 59.9662ZM162.368 19.6327C162.213 19.5731 162.082 19.4639 161.995 19.322C161.909 19.1801 161.872 19.0137 161.89 18.8486C161.9 18.7502 161.93 18.6548 161.977 18.5678C162.025 18.4809 162.089 18.4042 162.166 18.3421C162.243 18.2801 162.331 18.2338 162.426 18.2061C162.521 18.1785 162.621 18.1698 162.719 18.1808C164.528 18.3744 166.42 18.6067 168.344 18.875C168.442 18.8887 168.537 18.9215 168.622 18.9717C168.707 19.0218 168.782 19.0882 168.841 19.1672C168.901 19.2461 168.944 19.336 168.969 19.4318C168.994 19.5275 169 19.6272 168.986 19.7251C168.972 19.8232 168.94 19.9176 168.89 20.0031C168.84 20.0885 168.773 20.1632 168.694 20.223C168.615 20.2828 168.525 20.3264 168.43 20.3514C168.334 20.3763 168.234 20.3822 168.136 20.3686C166.279 20.1108 164.419 19.8814 162.555 19.6806C162.491 19.6725 162.428 19.6564 162.368 19.6327ZM251.408 52.0592C251.33 52.0294 251.258 51.9868 251.194 51.9332C249.765 50.7357 248.297 49.5854 246.792 48.4842C246.631 48.3662 246.524 48.1892 246.493 47.992C246.463 47.7949 246.511 47.5937 246.629 47.4325C246.747 47.2715 246.923 47.1637 247.12 47.1328C247.317 47.102 247.518 47.1505 247.679 47.2679C249.212 48.3883 250.707 49.5591 252.162 50.7782C252.298 50.8928 252.39 51.052 252.42 51.2276C252.45 51.4032 252.417 51.5839 252.327 51.7375C252.237 51.8911 252.095 52.0077 251.926 52.0666C251.758 52.1255 251.575 52.1229 251.408 52.0592ZM173.552 21.1712C173.378 21.1044 173.235 20.9753 173.15 20.8089C173.066 20.6425 173.046 20.4508 173.095 20.2707C173.144 20.0907 173.258 19.9352 173.415 19.8344C173.572 19.7336 173.761 19.6946 173.945 19.7251C175.783 20.0279 177.659 20.3623 179.52 20.7176C179.716 20.7556 179.889 20.8696 180.001 21.0347C180.113 21.1998 180.156 21.4025 180.119 21.5987C180.081 21.7949 179.968 21.9682 179.803 22.0808C179.638 22.1934 179.435 22.2362 179.238 22.1998C177.395 21.8493 175.548 21.5205 173.697 21.2136C173.648 21.2039 173.599 21.1897 173.552 21.1712ZM184.641 23.2842C184.473 23.22 184.333 23.0974 184.248 22.939C184.163 22.7806 184.137 22.5968 184.176 22.4211C184.219 22.2258 184.337 22.0552 184.504 21.9468C184.672 21.8384 184.876 21.801 185.072 21.8428C186.915 22.2384 188.771 22.6597 190.594 23.0986C190.69 23.1212 190.781 23.1627 190.861 23.2207C190.942 23.2788 191.01 23.3521 191.061 23.4366C191.113 23.5211 191.147 23.615 191.162 23.7128C191.177 23.8107 191.173 23.9105 191.149 24.0066C191.102 24.2007 190.981 24.3684 190.81 24.4728C190.64 24.5773 190.436 24.6099 190.242 24.5635C188.417 24.126 186.588 23.7096 184.754 23.3144C184.715 23.3089 184.677 23.2988 184.641 23.2842ZM242.317 45.385C242.268 45.366 242.222 45.3427 242.178 45.3153C240.608 44.3031 239.013 43.3295 237.395 42.3955C237.223 42.2956 237.097 42.1314 237.045 41.9388C236.993 41.7461 237.019 41.5408 237.119 41.3677C237.168 41.2818 237.234 41.2065 237.312 41.146C237.391 41.0856 237.48 41.0412 237.576 41.0154C237.671 40.9897 237.771 40.9831 237.869 40.9959C237.968 41.0088 238.062 41.041 238.148 41.0905C239.79 42.0349 241.406 43.0215 242.997 44.0494C243.164 44.158 243.282 44.3285 243.324 44.5237C243.366 44.7188 243.329 44.9227 243.221 45.0906C243.126 45.2352 242.985 45.3431 242.821 45.3966C242.656 45.4501 242.478 45.446 242.317 45.385ZM195.618 25.918C195.444 25.8508 195.302 25.7222 195.217 25.5566C195.133 25.3911 195.112 25.2002 195.16 25.0205C195.211 24.8277 195.336 24.663 195.509 24.5626C195.681 24.4622 195.886 24.4343 196.079 24.485C197.904 24.9685 199.722 25.4753 201.534 26.005C201.723 26.0633 201.882 26.1939 201.976 26.3685C202.07 26.543 202.091 26.7475 202.035 26.9377C201.98 27.128 201.851 27.2886 201.678 27.385C201.505 27.4814 201.301 27.5057 201.11 27.4527C199.31 26.9279 197.504 26.4247 195.692 25.9432C195.668 25.9344 195.641 25.9273 195.618 25.918ZM232.545 39.7398C232.518 39.7301 232.492 39.7189 232.467 39.7062C230.805 38.8464 229.125 38.0205 227.43 37.229C227.34 37.1872 227.259 37.1281 227.192 37.055C227.126 36.9819 227.074 36.8963 227.041 36.8031C227.007 36.7099 226.992 36.611 226.997 36.5121C227.002 36.4132 227.027 36.3163 227.069 36.2269C227.111 36.1371 227.17 36.0564 227.243 35.9895C227.316 35.9225 227.401 35.8707 227.494 35.837C227.587 35.8033 227.686 35.7884 227.785 35.7931C227.884 35.7978 227.981 35.8221 228.071 35.8645C229.783 36.6667 231.48 37.5017 233.161 38.3689C233.338 38.461 233.471 38.6195 233.532 38.8097C233.592 38.9999 233.575 39.2063 233.483 39.3836C233.398 39.548 233.255 39.6751 233.082 39.7408C232.909 39.8065 232.718 39.8061 232.545 39.7398ZM206.448 29.0831C206.268 29.0138 206.122 28.8784 206.039 28.7048C205.956 28.5312 205.942 28.3324 206.001 28.1491C206.062 27.9591 206.195 27.801 206.372 27.7094C206.549 27.6179 206.756 27.6003 206.946 27.6606C208.744 28.2375 210.533 28.839 212.315 29.4649C212.502 29.5332 212.655 29.6724 212.741 29.8525C212.827 30.0326 212.839 30.2392 212.775 30.428C212.709 30.6164 212.571 30.771 212.391 30.8578C212.211 30.9445 212.004 30.9564 211.816 30.8908C210.048 30.268 208.271 29.6713 206.485 29.1008C206.474 29.0932 206.462 29.089 206.448 29.0831ZM222.326 34.9526L222.299 34.9421C220.575 34.2101 218.839 33.5075 217.09 32.8346C216.904 32.7622 216.754 32.6189 216.673 32.4361C216.592 32.2533 216.587 32.0459 216.659 31.8593C216.694 31.7672 216.748 31.6829 216.815 31.6114C216.883 31.5398 216.965 31.4824 217.055 31.4423C217.145 31.4022 217.242 31.3803 217.341 31.3779C217.44 31.3754 217.538 31.3925 217.63 31.428L217.633 31.4288C219.396 32.1088 221.148 32.8184 222.887 33.5574C222.978 33.596 223.061 33.6521 223.13 33.7226C223.199 33.7931 223.254 33.8765 223.29 33.9681C223.327 34.0597 223.346 34.1577 223.345 34.2564C223.344 34.3552 223.323 34.4528 223.284 34.5436C223.209 34.7226 223.066 34.8654 222.888 34.9417C222.709 35.018 222.507 35.0219 222.326 34.9526Z" fill="#1A1A1A"/>
<path fill-rule="evenodd" clip-rule="evenodd" d="M130.824 57.2085C128.659 54.6331 123.529 54.1824 120.174 57.508C118.007 59.6563 117.651 62.1011 118.082 63.8063C118.103 63.8903 118.121 63.9751 118.138 64.0608L127.165 111.246C129.264 120.861 136.902 128.453 146.65 130.544L194.249 139.493L194.262 139.496L194.292 139.502C196.764 139.992 199.4 138.983 200.935 137.46C204.092 134.331 204.092 129.868 200.935 126.739L131.1 57.508C131.004 57.4122 130.911 57.3123 130.824 57.2085ZM109.327 59.0729L74.7434 93.6565C66.6949 101.705 66.6949 113.99 74.7434 122.039L129.294 176.589C131.049 178.345 133.894 178.345 135.649 176.589C135.701 176.537 135.752 176.483 135.801 176.429L139.908 180.492L143.264 178.009L163.071 179.591L165.271 177.147C167.036 178.673 169.707 178.597 171.383 176.921L200.419 147.886C197.984 148.632 195.295 148.858 192.568 148.322L144.936 139.367C144.901 139.36 144.867 139.353 144.832 139.346C131.617 136.539 121.212 126.244 118.369 113.094C118.362 113.059 118.354 113.024 118.348 112.989L109.332 65.8651C108.812 63.7084 108.792 61.3783 109.327 59.0729Z" fill="#FF7900"/>
<path d="M141.277 17.813L141.386 22.9059L113.929 24.9593L141.277 17.813Z" fill="#1A1A1A"/>
<path d="M140.801 28.6018L137.117 32.2248L115.163 24.8462L140.801 28.6018Z" fill="#FF7900"/>
<path d="M113.929 24.9593L153.65 32.8826L144.529 22.1533L113.929 24.9593Z" fill="#FF7900"/>
<path d="M141.278 17.8133L113.929 24.9596L135.842 10.5591L141.278 17.8133ZM241.31 181.553C232.39 181.72 230.029 182.425 220.769 182.135C216.359 182.176 211.651 182.051 207.34 181.969C205.29 181.429 201.685 181.969 199.253 181.512L198.32 181.802C197.486 181.636 196.511 181.553 195.663 181.72L195.719 181.802C194.475 181.595 193.062 181.72 192.454 181.595L192.51 181.678L190.997 181.636L191.252 181.761C189.075 181.512 186.841 181.512 184.862 181.595L185.032 181.221C180.805 181.636 179.264 180.889 175.462 181.346L175.518 181.429C170.698 180.474 167.913 182.093 162.951 181.18C163.573 181.305 162.682 181.346 162.739 181.471C160.448 181.387 158.017 181.305 157.974 180.599C156.306 180.599 156.617 180.807 156.405 181.097C156.42 180.807 154.963 180.641 153.663 180.641L154.257 180.765L150.525 180.641L151.26 180.059C149.28 180.226 150.751 180.765 148.871 180.641L148.899 180.142C146.17 180.226 144.559 180.972 141.915 181.346C130.917 181.553 119.099 180.308 108.878 181.18L108.426 181.553C108.228 182.093 105.598 180.765 105.217 181.263L104.029 181.014C103.69 181.097 102.983 181.221 103.577 181.346C102.474 181.387 102.446 181.263 101.655 181.138L100.467 181.471C96.1269 181.72 92.4372 181.097 87.871 181.221C82.3862 181.885 72.0525 181.263 66.1007 180.931C57.7322 180.142 48.0059 182.259 39.4391 181.346C39.1565 181.429 38.4357 181.263 38.4496 181.18L30.604 181.263C30.604 181.263 -7.40938 181.471 21.4715 177.03L21.2737 176.906C25.5711 176.615 28.2713 176.574 31.226 177.155C31.6926 176.449 34.746 177.071 35.7498 176.864L35.6507 176.822C38.2661 177.362 41.0368 176.366 43.5673 176.864C43.4682 176.822 43.4119 176.615 42.8323 176.615C44.6698 176.698 47.186 176.864 47.3276 176.449C51.7241 176.574 57.8452 176.366 60.6584 177.03L60.4605 176.906C62.0578 177.362 62.5383 176.989 64.3338 177.196C64.4329 177.155 64.5602 177.113 64.5316 177.071C66.2847 177.528 69.635 177.155 71.0345 177.321L71.1193 177.03L74.5969 177.113L73.2966 177.155C73.7489 177.901 75.9258 176.656 78.442 177.155C80.8028 177.071 83.2346 178.732 85.6798 178.358C86.8533 178.732 84.6479 177.777 86.401 178.068C86.4577 177.653 85.5812 177.819 86.0335 177.486C87.7442 177.694 88.8467 177.071 90.9672 177.362L91.0521 177.071C93.8085 177.653 96.2542 176.656 98.0921 177.196C100.933 177.445 100 176.283 102.969 176.864L104.128 176.449C105.401 176.366 105.033 176.947 106.447 176.74C106.362 176.491 108.228 176.532 107.394 176.283C110.575 175.868 113.854 176.864 118.053 176.159C118.958 176.656 121.078 176.366 121.757 176.74C121.87 176.532 125.983 176.698 123.623 176.2C123.425 176.158 123.057 176.159 123.085 176.242L122.803 175.951C125.192 175.37 127.143 176.283 129.517 176.159C128.811 176.242 127.878 176.242 128.5 176.449L130.705 176.407L130.253 176.159L133.532 175.992L133.08 176.325C134.677 176.159 135.243 175.619 137.053 176.076C137.872 176.325 135.54 176.491 137.222 176.615C139.371 176.407 142.58 176.076 145.308 175.992C145.054 176.366 145.789 176.325 146.552 176.407L146.637 176.117C149.535 176.532 147.697 175.453 150.581 175.785L150.327 175.577L151.09 176.242C153.691 176.864 152.49 175.619 155.373 176.449C154.229 176.407 154.836 177.113 156.236 176.989L155.882 176.698C156.66 176.781 156.914 176.906 157.437 176.822C156.971 176.656 157.197 176.407 158.342 176.449L157.579 176.076L159.741 176.615C161.41 176.283 164.053 176.698 164.746 176.283C164.746 176.283 168.337 176.076 169.157 176.532C168.435 176.242 170.415 176.117 169.849 175.785C170.782 176.117 173.525 176.366 174.627 176.034L174.415 175.992C178.487 175.619 181.371 176.491 185.018 176.034C184.848 176.407 186.785 176.2 186.304 176.656C190.079 177.113 193.189 175.702 194.56 177.155C196.285 177.238 196.596 176.822 197.486 176.74L197.076 176.656C200.3 176.781 201.232 176.781 203.621 176.74C204.809 176.864 205.007 177.528 207.141 177.362C206.449 177.113 207.325 177.155 208.117 177.155C207.608 177.113 207.453 177.03 208.499 176.822C208.64 176.906 208.88 176.947 209.092 176.989C209.107 176.989 209.149 176.947 209.121 176.906C210.45 176.989 210.223 177.071 209.601 177.113C209.629 177.155 209.587 177.196 209.389 177.279C210.775 176.947 213.249 177.32 213.418 176.864C217.433 176.989 220.302 177.445 223.639 177.611C224.021 177.362 223.229 177.155 222.268 177.071L224.643 177.155C224.628 176.822 223.285 176.947 222.55 176.906C225.378 176.366 228.374 177.445 231.683 176.947L232.375 177.196L232.573 177.155C232.559 177.279 233.308 177.486 233.789 177.528C234.255 177.238 233.761 176.864 235.401 176.864C236.701 176.574 239.076 176.989 240.772 177.155C239.853 177.196 240.15 177.362 240.546 177.486C241.366 177.486 241.833 177.196 242.469 177.321L242.554 176.947C242.229 177.32 244.688 177.362 244.999 177.486C245.466 177.196 243.727 177.238 243.529 177.03C246.809 177.071 245.169 177.03 248.463 177.071C250.216 177.362 248.138 177.445 248.986 177.777C250.527 177.86 252.039 178.109 253.821 177.901L253.255 178.234C256.167 178.524 257.906 178.483 259.857 178.109C281.514 180.931 264.423 181.969 264.423 181.969C255.856 182.84 251.46 181.844 241.31 181.553Z" fill="#FF7900"/>
<path d="M230.44 98.2476C228.574 99.325 226.188 98.6856 225.11 96.8196C224.033 94.9536 224.672 92.5676 226.538 91.4902C228.404 90.4129 230.79 91.0522 231.868 92.9182C232.945 94.7842 232.306 97.1703 230.44 98.2476Z" fill="#FF7900"/>
<path d="M44.66 143.72C47.2116 143.72 49.28 145.788 49.28 148.34C49.28 150.892 47.2116 152.96 44.66 152.96C42.1085 152.96 40.04 150.892 40.04 148.34C40.04 145.788 42.1085 143.72 44.66 143.72Z" fill="#FF7900"/>
<path d="M86.445 54.2602C84.7076 54.2602 83.2992 55.6686 83.2992 57.406C83.2992 59.1433 84.7076 60.5518 86.445 60.5518C88.1824 60.5518 89.5908 59.1433 89.5908 57.406C89.5908 55.6686 88.1824 54.2602 86.445 54.2602Z" fill="#1A1A1A"/>
<path d="M66.9168 143.671C65.3035 143.671 63.9957 144.979 63.9957 146.593C63.9957 148.206 65.3035 149.514 66.9168 149.514C68.5301 149.514 69.8379 148.206 69.8379 146.593C69.8379 144.979 68.5301 143.671 66.9168 143.671Z" fill="#1A1A1A"/>
<path d="M26.0242 95.1392C24.4109 95.1392 23.1031 96.4471 23.1031 98.0604C23.1031 99.6736 24.4109 100.981 26.0242 100.981C27.6375 100.981 28.9453 99.6736 28.9453 98.0604C28.9453 96.4471 27.6375 95.1392 26.0242 95.1392Z" fill="#1A1A1A"/>
<path d="M49.4476 58.0662C53.7011 58.0662 57.1492 61.5143 57.1492 65.7677C57.1492 70.0211 53.7011 73.4692 49.4476 73.4692C45.1942 73.4692 41.7461 70.0211 41.7461 65.7677C41.7461 61.5143 45.1942 58.0662 49.4476 58.0662Z" fill="#FF7900"/>
<path d="M170.813 52.9424C172.227 54.3569 174.521 54.3569 175.935 52.9424C177.35 51.5279 177.35 49.2345 175.935 47.82C174.521 46.4055 172.227 46.4055 170.813 47.82C169.398 49.2345 169.398 51.5279 170.813 52.9424Z" fill="#1A1A1A"/>
<path d="M223.89 133.141C221.356 130.607 221.356 126.499 223.89 123.965C226.424 121.431 230.532 121.431 233.066 123.965C235.6 126.499 235.6 130.607 233.066 133.141C230.532 135.675 226.424 135.675 223.89 133.141Z" fill="#FF7900"/>
</svg>
