<svg width="147" height="191" viewBox="0 0 147 191" fill="none" xmlns="http://www.w3.org/2000/svg">
<path d="M131.672 77.3143H131.265V58.8531C131.265 26.7496 104.998 -0.535009 72.9625 0.0079675C41.8092 0.550944 16.5608 26.0709 16.5608 57.3599V59.1246C16.5608 61.7716 18.7327 63.9435 21.3797 63.9435H36.7867C39.4337 63.9435 41.6056 61.7716 41.6056 59.1246V58.5816C41.6056 41.3421 54.5691 26.2066 71.8087 25.1206C90.5414 23.9668 106.152 38.8308 106.152 57.292V77.2464H58.6415V77.3143H14.7282C6.58359 77.5858 0 84.1693 0 92.3819V175.865C0 184.213 6.7872 191 15.1355 191H131.604C139.952 191 146.739 184.213 146.739 175.865V92.4498C146.807 84.1015 140.02 77.3143 131.672 77.3143ZM82.3967 137.924C81.2429 138.739 80.9035 139.621 80.9035 140.978C80.9714 147.087 80.9714 153.195 80.9035 159.372C81.0393 161.951 79.7497 164.394 77.442 165.548C72.0801 168.263 66.7183 164.462 66.7183 159.372C66.7183 159.372 66.7183 159.372 66.7183 159.304C66.7183 153.195 66.7183 147.019 66.7183 140.91C66.7183 139.689 66.4468 138.806 65.3608 137.992C59.7953 133.92 57.9628 126.929 60.7455 120.752C63.4604 114.78 70.044 111.25 76.2203 112.54C83.1433 113.897 87.9622 119.531 88.0301 126.386C88.2337 131.205 86.2654 135.141 82.3967 137.924Z" fill="#282828"/>
<circle cx="72.8733" cy="134.765" r="34.9392" fill="#FF6600"/>
<path d="M67.813 146.274L57.3714 135.833C56.7441 135.205 56.7441 134.188 57.3714 133.561L59.6431 131.289C60.2704 130.662 61.2876 130.662 61.9149 131.289L68.9489 138.323L84.0149 123.257C84.6422 122.63 85.6594 122.63 86.2867 123.257L88.5585 125.529C89.1858 126.156 89.1858 127.173 88.5585 127.8L70.0848 146.274C69.4574 146.902 68.4403 146.902 67.813 146.274Z" fill="#FCFCFC"/>
</svg>
