<svg width="172" height="183" viewBox="0 0 172 183" fill="none" xmlns="http://www.w3.org/2000/svg">
<path d="M76.4913 7.96855L0.868652 68.8233V167.258C0.868652 175.952 7.91654 183 16.6106 183H155.605C164.299 183 171.347 175.952 171.347 167.258V68.8233L96.2698 8.00099C90.5076 3.33285 82.2688 3.31933 76.4913 7.96855Z" fill="#312F2F"/>
<rect x="25.4678" y="26.7175" width="121.852" height="151.686" rx="18.8903" fill="white"/>
<path d="M35.9521 49.5871C35.9521 47.8483 37.3617 46.4387 39.1005 46.4387H130.764C132.502 46.4387 133.912 47.8483 133.912 49.5871C133.912 51.3259 132.502 52.7355 130.764 52.7355H39.1005C37.3617 52.7355 35.9521 51.3259 35.9521 49.5871Z" fill="#FF6600"/>
<path d="M35.9521 70.0517C35.9521 68.3129 37.3617 66.9033 39.1005 66.9033H130.764C132.502 66.9033 133.912 68.3129 133.912 70.0517C133.912 71.7905 132.502 73.2001 130.764 73.2001H39.1005C37.3617 73.2001 35.9521 71.7905 35.9521 70.0517Z" fill="#D5D5D5"/>
<path d="M35.9521 90.5161C35.9521 88.7773 37.3617 87.3677 39.1005 87.3677H130.764C132.502 87.3677 133.912 88.7773 133.912 90.5161C133.912 92.2549 132.502 93.6644 130.764 93.6644H39.1005C37.3617 93.6644 35.9521 92.2549 35.9521 90.5161Z" fill="#D5D5D5"/>
<path d="M35.9521 110.981C35.9521 109.242 37.3617 107.832 39.1005 107.832H130.764C132.502 107.832 133.912 109.242 133.912 110.981C133.912 112.719 132.502 114.129 130.764 114.129H39.1005C37.3617 114.129 35.9521 112.719 35.9521 110.981Z" fill="#D5D5D5"/>
<path fill-rule="evenodd" clip-rule="evenodd" d="M0.868652 68.6606V167.258C0.868652 175.952 7.91654 183 16.6106 183H111.901C127.217 183 133.513 163.344 121.046 154.445L0.868652 68.6606Z" fill="#282828"/>
<path fill-rule="evenodd" clip-rule="evenodd" d="M171.347 68.6606V167.258C171.347 175.952 164.299 183 155.605 183H15.5767L171.347 68.6606Z" fill="#282828"/>
<path fill-rule="evenodd" clip-rule="evenodd" d="M171.669 70.1429L21.454 183H15.1846L169.821 67.5991L171.669 70.1429Z" fill="#FF6600"/>
</svg>
