<svg width="360" height="360" viewBox="0 0 360 360" fill="none" xmlns="http://www.w3.org/2000/svg">
<g filter="url(#filter0_ddddii_3235_7687)">
<circle cx="178.5" cy="178.5" r="163.5" fill="#121114"/>
<circle cx="178.5" cy="178.5" r="162" stroke="url(#paint0_linear_3235_7687)" stroke-width="3"/>
</g>
<g filter="url(#filter1_f_3235_7687)">
<circle cx="178.5" cy="178.5" r="162" stroke="url(#paint1_linear_3235_7687)" stroke-width="3"/>
</g>
<rect x="85" y="132" width="95" height="95" fill="#FF6600"/>
<path d="M90.9521 212.542V212.262C90.9521 211.31 91.0905 210.427 91.3672 209.613C91.6439 208.791 92.0426 208.079 92.5635 207.477C93.0924 206.866 93.7354 206.394 94.4922 206.061C95.2572 205.719 96.1198 205.548 97.0801 205.548C98.0485 205.548 98.9111 205.719 99.668 206.061C100.433 206.394 101.08 206.866 101.609 207.477C102.138 208.079 102.541 208.791 102.817 209.613C103.094 210.427 103.232 211.31 103.232 212.262V212.542C103.232 213.495 103.094 214.378 102.817 215.191C102.541 216.005 102.138 216.717 101.609 217.328C101.08 217.93 100.437 218.402 99.6802 218.744C98.9233 219.077 98.0648 219.244 97.1045 219.244C96.1361 219.244 95.2694 219.077 94.5044 218.744C93.7476 218.402 93.1047 217.93 92.5757 217.328C92.0467 216.717 91.6439 216.005 91.3672 215.191C91.0905 214.378 90.9521 213.495 90.9521 212.542ZM93.894 212.262V212.542C93.894 213.137 93.9551 213.698 94.0771 214.227C94.1992 214.756 94.3905 215.22 94.6509 215.619C94.9113 216.017 95.245 216.331 95.6519 216.559C96.0588 216.786 96.543 216.9 97.1045 216.9C97.6497 216.9 98.1217 216.786 98.5205 216.559C98.9274 216.331 99.2611 216.017 99.5215 215.619C99.7819 215.22 99.9731 214.756 100.095 214.227C100.225 213.698 100.291 213.137 100.291 212.542V212.262C100.291 211.676 100.225 211.122 100.095 210.602C99.9731 210.073 99.7778 209.605 99.5093 209.198C99.2489 208.791 98.9152 208.473 98.5083 208.246C98.1095 208.01 97.6335 207.892 97.0801 207.892C96.5267 207.892 96.0465 208.01 95.6396 208.246C95.2409 208.473 94.9113 208.791 94.6509 209.198C94.3905 209.605 94.1992 210.073 94.0771 210.602C93.9551 211.122 93.894 211.676 93.894 212.262ZM109.152 208.307V219H106.21V205.792H109.018L109.152 208.307ZM113.193 205.707L113.168 208.441C112.989 208.408 112.794 208.384 112.583 208.368C112.379 208.351 112.176 208.343 111.972 208.343C111.468 208.343 111.024 208.417 110.642 208.563C110.259 208.701 109.938 208.905 109.677 209.173C109.425 209.434 109.23 209.751 109.091 210.125C108.953 210.5 108.872 210.919 108.847 211.383L108.176 211.432C108.176 210.602 108.257 209.833 108.42 209.125C108.583 208.417 108.827 207.794 109.152 207.257C109.486 206.72 109.901 206.301 110.397 206C110.902 205.698 111.484 205.548 112.143 205.548C112.322 205.548 112.513 205.564 112.717 205.597C112.928 205.629 113.087 205.666 113.193 205.707ZM122.543 216.351V210.052C122.543 209.58 122.458 209.173 122.287 208.832C122.116 208.49 121.855 208.225 121.505 208.038C121.164 207.851 120.732 207.757 120.211 207.757C119.731 207.757 119.316 207.839 118.966 208.001C118.616 208.164 118.344 208.384 118.148 208.661C117.953 208.937 117.855 209.251 117.855 209.601H114.926C114.926 209.08 115.052 208.575 115.304 208.087C115.556 207.599 115.923 207.163 116.403 206.781C116.883 206.398 117.457 206.097 118.124 205.877C118.791 205.658 119.54 205.548 120.37 205.548C121.363 205.548 122.242 205.715 123.007 206.048C123.78 206.382 124.386 206.887 124.826 207.562C125.273 208.229 125.497 209.068 125.497 210.077V215.948C125.497 216.55 125.538 217.092 125.619 217.572C125.709 218.044 125.835 218.455 125.998 218.805V219H122.982C122.844 218.683 122.734 218.28 122.653 217.792C122.58 217.295 122.543 216.815 122.543 216.351ZM122.97 210.968L122.995 212.787H120.883C120.338 212.787 119.857 212.84 119.442 212.945C119.027 213.043 118.681 213.189 118.405 213.385C118.128 213.58 117.921 213.816 117.782 214.093C117.644 214.369 117.575 214.683 117.575 215.033C117.575 215.383 117.656 215.704 117.819 215.997C117.982 216.282 118.218 216.506 118.527 216.668C118.844 216.831 119.227 216.913 119.674 216.913C120.277 216.913 120.801 216.791 121.249 216.546C121.705 216.294 122.063 215.989 122.323 215.631C122.584 215.265 122.722 214.919 122.738 214.593L123.69 215.899C123.593 216.233 123.426 216.591 123.19 216.974C122.954 217.356 122.645 217.722 122.262 218.072C121.888 218.414 121.436 218.695 120.907 218.915C120.386 219.134 119.784 219.244 119.101 219.244C118.238 219.244 117.469 219.073 116.793 218.731C116.118 218.382 115.589 217.914 115.207 217.328C114.824 216.734 114.633 216.062 114.633 215.313C114.633 214.614 114.763 213.995 115.023 213.458C115.292 212.913 115.683 212.457 116.195 212.091C116.716 211.725 117.351 211.448 118.1 211.261C118.848 211.065 119.703 210.968 120.663 210.968H122.97ZM131.991 208.612V219H129.049V205.792H131.82L131.991 208.612ZM131.466 211.908L130.514 211.896C130.522 210.96 130.652 210.101 130.904 209.32C131.165 208.539 131.523 207.867 131.979 207.306C132.442 206.744 132.996 206.313 133.639 206.012C134.282 205.702 134.998 205.548 135.787 205.548C136.422 205.548 136.996 205.637 137.508 205.816C138.029 205.987 138.473 206.268 138.839 206.659C139.213 207.049 139.498 207.558 139.693 208.185C139.889 208.803 139.986 209.564 139.986 210.467V219H137.032V210.455C137.032 209.82 136.939 209.32 136.751 208.954C136.572 208.579 136.308 208.315 135.958 208.16C135.616 207.997 135.189 207.916 134.676 207.916C134.172 207.916 133.72 208.022 133.321 208.233C132.923 208.445 132.585 208.734 132.308 209.1C132.04 209.466 131.832 209.889 131.686 210.37C131.539 210.85 131.466 211.362 131.466 211.908ZM151.949 205.792H154.622V218.634C154.622 219.822 154.37 220.831 153.865 221.661C153.361 222.491 152.657 223.122 151.753 223.553C150.85 223.993 149.804 224.212 148.616 224.212C148.112 224.212 147.55 224.139 146.932 223.993C146.321 223.846 145.727 223.61 145.149 223.285C144.58 222.967 144.104 222.548 143.721 222.027L145.101 220.294C145.573 220.855 146.093 221.266 146.663 221.527C147.233 221.787 147.831 221.917 148.458 221.917C149.133 221.917 149.707 221.791 150.179 221.539C150.659 221.295 151.029 220.933 151.29 220.453C151.55 219.972 151.68 219.387 151.68 218.695V208.783L151.949 205.792ZM142.977 212.542V212.286C142.977 211.285 143.099 210.374 143.343 209.552C143.587 208.722 143.937 208.01 144.393 207.416C144.848 206.813 145.402 206.354 146.053 206.036C146.704 205.711 147.44 205.548 148.262 205.548C149.117 205.548 149.845 205.702 150.447 206.012C151.058 206.321 151.566 206.764 151.973 207.342C152.38 207.912 152.697 208.596 152.925 209.393C153.161 210.182 153.336 211.061 153.45 212.03V212.848C153.344 213.792 153.165 214.654 152.913 215.436C152.661 216.217 152.327 216.892 151.912 217.462C151.497 218.032 150.984 218.471 150.374 218.78C149.772 219.09 149.06 219.244 148.238 219.244C147.432 219.244 146.704 219.077 146.053 218.744C145.41 218.41 144.856 217.942 144.393 217.34C143.937 216.738 143.587 216.03 143.343 215.216C143.099 214.394 142.977 213.503 142.977 212.542ZM145.918 212.286V212.542C145.918 213.145 145.975 213.706 146.089 214.227C146.211 214.748 146.395 215.208 146.639 215.606C146.891 215.997 147.208 216.306 147.591 216.534C147.981 216.754 148.441 216.864 148.97 216.864C149.662 216.864 150.228 216.717 150.667 216.424C151.115 216.131 151.456 215.737 151.692 215.24C151.937 214.736 152.107 214.174 152.205 213.556V211.346C152.156 210.866 152.055 210.418 151.9 210.003C151.753 209.588 151.554 209.226 151.302 208.917C151.049 208.6 150.732 208.355 150.35 208.185C149.967 208.006 149.515 207.916 148.995 207.916C148.466 207.916 148.006 208.03 147.615 208.258C147.225 208.486 146.903 208.799 146.651 209.198C146.407 209.597 146.224 210.06 146.102 210.589C145.979 211.118 145.918 211.684 145.918 212.286ZM163.997 219.244C163.02 219.244 162.137 219.085 161.348 218.768C160.566 218.443 159.899 217.991 159.346 217.413C158.8 216.835 158.381 216.156 158.088 215.375C157.795 214.593 157.649 213.751 157.649 212.848V212.359C157.649 211.326 157.799 210.39 158.101 209.552C158.402 208.714 158.821 207.997 159.358 207.403C159.895 206.801 160.53 206.341 161.262 206.024C161.995 205.707 162.788 205.548 163.643 205.548C164.587 205.548 165.413 205.707 166.121 206.024C166.829 206.341 167.415 206.789 167.878 207.367C168.35 207.936 168.7 208.616 168.928 209.405C169.164 210.195 169.282 211.065 169.282 212.018V213.275H159.077V211.163H166.377V210.931C166.361 210.402 166.255 209.906 166.06 209.442C165.872 208.978 165.583 208.604 165.193 208.319C164.802 208.034 164.281 207.892 163.63 207.892C163.142 207.892 162.707 207.997 162.324 208.209C161.95 208.412 161.637 208.709 161.384 209.1C161.132 209.491 160.937 209.963 160.798 210.516C160.668 211.061 160.603 211.676 160.603 212.359V212.848C160.603 213.425 160.68 213.963 160.835 214.459C160.998 214.947 161.234 215.375 161.543 215.741C161.852 216.107 162.227 216.396 162.666 216.607C163.105 216.811 163.606 216.913 164.167 216.913C164.875 216.913 165.506 216.77 166.06 216.485C166.613 216.201 167.093 215.798 167.5 215.277L169.05 216.778C168.765 217.193 168.395 217.592 167.939 217.975C167.484 218.349 166.926 218.654 166.267 218.89C165.616 219.126 164.859 219.244 163.997 219.244Z" fill="white"/>
<path d="M169.188 200.734V205H168.459V200.734H169.188ZM170.527 200.734V201.32H167.132V200.734H170.527ZM171.889 200.734H172.545L173.778 204.024L175.009 200.734H175.665L174.036 205H173.515L171.889 200.734ZM171.59 200.734H172.214L172.322 203.582V205H171.59V200.734ZM175.34 200.734H175.967V205H175.231V203.582L175.34 200.734Z" fill="white"/>
<path d="M202.089 149.662V150.577C202.089 151.92 201.91 153.128 201.552 154.203C201.194 155.269 200.685 156.176 200.026 156.925C199.367 157.674 198.581 158.247 197.67 158.646C196.758 159.045 195.745 159.244 194.63 159.244C193.532 159.244 192.523 159.045 191.603 158.646C190.692 158.247 189.902 157.674 189.235 156.925C188.568 156.176 188.051 155.269 187.685 154.203C187.318 153.128 187.135 151.92 187.135 150.577V149.662C187.135 148.311 187.318 147.102 187.685 146.036C188.051 144.97 188.563 144.063 189.223 143.314C189.882 142.557 190.667 141.979 191.579 141.581C192.498 141.182 193.507 140.982 194.606 140.982C195.721 140.982 196.734 141.182 197.646 141.581C198.557 141.979 199.342 142.557 200.001 143.314C200.669 144.063 201.181 144.97 201.54 146.036C201.906 147.102 202.089 148.311 202.089 149.662ZM198.695 150.577V149.637C198.695 148.669 198.606 147.818 198.427 147.086C198.248 146.345 197.983 145.723 197.633 145.218C197.283 144.714 196.852 144.335 196.339 144.083C195.827 143.823 195.249 143.692 194.606 143.692C193.955 143.692 193.377 143.823 192.873 144.083C192.376 144.335 191.953 144.714 191.603 145.218C191.253 145.723 190.985 146.345 190.797 147.086C190.618 147.818 190.529 148.669 190.529 149.637V150.577C190.529 151.537 190.618 152.388 190.797 153.128C190.985 153.869 191.253 154.496 191.603 155.008C191.961 155.513 192.392 155.895 192.897 156.156C193.402 156.416 193.979 156.546 194.63 156.546C195.281 156.546 195.859 156.416 196.364 156.156C196.868 155.895 197.292 155.513 197.633 155.008C197.983 154.496 198.248 153.869 198.427 153.128C198.606 152.388 198.695 151.537 198.695 150.577ZM208.412 148.49V159H205.189V145.792H208.241L208.412 148.49ZM212.428 145.707L212.379 148.709C212.2 148.677 211.996 148.653 211.769 148.636C211.549 148.62 211.341 148.612 211.146 148.612C210.65 148.612 210.214 148.681 209.84 148.819C209.465 148.95 209.152 149.141 208.9 149.393C208.656 149.645 208.469 149.955 208.338 150.321C208.208 150.679 208.135 151.086 208.119 151.542L207.423 151.456C207.423 150.618 207.508 149.841 207.679 149.125C207.85 148.408 208.098 147.782 208.424 147.245C208.749 146.708 209.156 146.292 209.645 146C210.141 145.698 210.711 145.548 211.354 145.548C211.533 145.548 211.724 145.564 211.927 145.597C212.139 145.621 212.306 145.658 212.428 145.707ZM221.558 156.192V150.101C221.558 149.653 221.481 149.267 221.326 148.941C221.172 148.616 220.936 148.364 220.618 148.185C220.301 148.006 219.898 147.916 219.41 147.916C218.978 147.916 218.6 147.989 218.274 148.136C217.957 148.282 217.713 148.49 217.542 148.758C217.371 149.019 217.286 149.32 217.286 149.662H214.051C214.051 149.116 214.181 148.6 214.441 148.111C214.702 147.615 215.072 147.175 215.552 146.793C216.041 146.402 216.622 146.097 217.298 145.877C217.981 145.658 218.746 145.548 219.593 145.548C220.594 145.548 221.485 145.719 222.266 146.061C223.056 146.394 223.674 146.899 224.122 147.574C224.577 148.25 224.805 149.1 224.805 150.125V155.887C224.805 156.546 224.846 157.112 224.927 157.584C225.017 158.048 225.147 158.451 225.318 158.792V159H222.034C221.88 158.666 221.762 158.243 221.68 157.73C221.599 157.21 221.558 156.697 221.558 156.192ZM222.01 150.956L222.034 152.872H219.996C219.491 152.872 219.048 152.925 218.665 153.031C218.283 153.128 217.969 153.275 217.725 153.47C217.481 153.657 217.298 153.885 217.176 154.154C217.054 154.414 216.993 154.711 216.993 155.045C216.993 155.37 217.066 155.663 217.212 155.924C217.367 156.184 217.587 156.392 217.872 156.546C218.165 156.693 218.506 156.766 218.897 156.766C219.467 156.766 219.963 156.652 220.386 156.424C220.809 156.188 221.139 155.903 221.375 155.57C221.611 155.236 221.737 154.919 221.753 154.618L222.681 156.009C222.567 156.343 222.396 156.697 222.168 157.071C221.941 157.446 221.648 157.796 221.29 158.121C220.931 158.447 220.5 158.715 219.996 158.927C219.491 159.138 218.905 159.244 218.238 159.244C217.383 159.244 216.618 159.073 215.943 158.731C215.267 158.39 214.734 157.922 214.344 157.328C213.953 156.734 213.758 156.058 213.758 155.301C213.758 154.601 213.888 153.983 214.148 153.446C214.409 152.909 214.795 152.457 215.308 152.091C215.821 151.716 216.456 151.436 217.212 151.249C217.977 151.053 218.852 150.956 219.837 150.956H222.01ZM231.372 148.612V159H228.149V145.792H231.177L231.372 148.612ZM230.859 151.92H229.907C229.915 150.96 230.046 150.089 230.298 149.308C230.55 148.526 230.904 147.855 231.36 147.293C231.824 146.732 232.373 146.301 233.008 146C233.643 145.698 234.351 145.548 235.132 145.548C235.767 145.548 236.34 145.637 236.853 145.816C237.366 145.995 237.805 146.28 238.171 146.671C238.546 147.062 238.831 147.574 239.026 148.209C239.229 148.836 239.331 149.609 239.331 150.528V159H236.084V150.504C236.084 149.902 235.994 149.426 235.815 149.076C235.645 148.726 235.392 148.478 235.059 148.331C234.733 148.185 234.33 148.111 233.85 148.111C233.354 148.111 232.918 148.213 232.544 148.417C232.178 148.612 231.868 148.884 231.616 149.234C231.372 149.584 231.185 149.987 231.055 150.443C230.924 150.899 230.859 151.391 230.859 151.92ZM251.074 145.792H254.003V158.597C254.003 159.793 253.743 160.807 253.222 161.637C252.709 162.475 251.989 163.11 251.062 163.541C250.134 163.98 249.056 164.2 247.827 164.2C247.298 164.2 246.724 164.127 246.105 163.98C245.495 163.834 244.905 163.602 244.335 163.285C243.774 162.975 243.306 162.573 242.932 162.076L244.384 160.172C244.824 160.685 245.32 161.071 245.874 161.332C246.427 161.6 247.025 161.734 247.668 161.734C248.319 161.734 248.872 161.612 249.328 161.368C249.792 161.132 250.146 160.782 250.39 160.318C250.642 159.863 250.769 159.301 250.769 158.634V148.807L251.074 145.792ZM242.15 152.555V152.298C242.15 151.289 242.272 150.374 242.517 149.552C242.761 148.722 243.111 148.01 243.566 147.416C244.03 146.821 244.588 146.362 245.239 146.036C245.898 145.711 246.639 145.548 247.46 145.548C248.331 145.548 249.064 145.707 249.658 146.024C250.26 146.341 250.756 146.793 251.147 147.379C251.546 147.965 251.855 148.661 252.075 149.466C252.303 150.264 252.478 151.143 252.6 152.103V152.799C252.486 153.735 252.303 154.593 252.05 155.375C251.806 156.156 251.481 156.839 251.074 157.425C250.667 158.003 250.162 158.451 249.56 158.768C248.958 159.085 248.25 159.244 247.436 159.244C246.622 159.244 245.89 159.077 245.239 158.744C244.588 158.41 244.03 157.942 243.566 157.34C243.111 156.738 242.761 156.03 242.517 155.216C242.272 154.402 242.15 153.515 242.15 152.555ZM245.373 152.298V152.555C245.373 153.124 245.43 153.657 245.544 154.154C245.658 154.65 245.833 155.09 246.069 155.472C246.305 155.847 246.602 156.139 246.96 156.351C247.318 156.563 247.745 156.668 248.242 156.668C248.909 156.668 249.454 156.53 249.877 156.253C250.309 155.969 250.634 155.582 250.854 155.094C251.082 154.597 251.228 154.04 251.293 153.421V151.505C251.253 151.017 251.163 150.565 251.025 150.15C250.895 149.735 250.712 149.377 250.476 149.076C250.24 148.775 249.938 148.539 249.572 148.368C249.206 148.197 248.771 148.111 248.266 148.111C247.778 148.111 247.351 148.221 246.984 148.441C246.618 148.653 246.317 148.95 246.081 149.332C245.845 149.715 245.666 150.158 245.544 150.663C245.43 151.167 245.373 151.712 245.373 152.298ZM263.341 159.244C262.34 159.244 261.441 159.081 260.644 158.756C259.846 158.43 259.167 157.979 258.605 157.401C258.052 156.815 257.624 156.135 257.323 155.362C257.03 154.581 256.884 153.743 256.884 152.848V152.359C256.884 151.342 257.03 150.418 257.323 149.588C257.616 148.75 258.031 148.03 258.568 147.428C259.105 146.826 259.748 146.362 260.497 146.036C261.246 145.711 262.072 145.548 262.975 145.548C263.911 145.548 264.737 145.707 265.453 146.024C266.169 146.333 266.767 146.773 267.248 147.342C267.728 147.912 268.09 148.596 268.334 149.393C268.578 150.182 268.7 151.057 268.7 152.018V153.373H258.349V151.151H265.526V150.907C265.51 150.394 265.412 149.926 265.233 149.503C265.054 149.072 264.778 148.73 264.403 148.478C264.029 148.217 263.545 148.087 262.951 148.087C262.471 148.087 262.051 148.193 261.693 148.404C261.343 148.608 261.05 148.901 260.814 149.283C260.587 149.658 260.416 150.105 260.302 150.626C260.188 151.147 260.131 151.725 260.131 152.359V152.848C260.131 153.401 260.204 153.914 260.351 154.386C260.505 154.858 260.729 155.269 261.022 155.619C261.323 155.96 261.681 156.229 262.096 156.424C262.519 156.611 263 156.705 263.537 156.705C264.212 156.705 264.822 156.575 265.368 156.314C265.921 156.046 266.401 155.651 266.808 155.13L268.432 156.815C268.155 157.222 267.781 157.612 267.309 157.987C266.845 158.361 266.283 158.666 265.624 158.902C264.965 159.13 264.204 159.244 263.341 159.244Z" fill="white"/>
<path d="M193.007 189H189.174L189.198 186.363H193.007C194.04 186.363 194.907 186.135 195.607 185.68C196.307 185.216 196.836 184.553 197.194 183.69C197.552 182.819 197.731 181.778 197.731 180.565V179.649C197.731 178.714 197.629 177.888 197.426 177.171C197.222 176.455 196.921 175.853 196.522 175.365C196.132 174.876 195.648 174.506 195.07 174.254C194.492 174.002 193.829 173.875 193.08 173.875H189.101V171.227H193.08C194.268 171.227 195.351 171.426 196.327 171.825C197.312 172.223 198.162 172.797 198.878 173.546C199.603 174.286 200.156 175.174 200.539 176.207C200.929 177.241 201.125 178.396 201.125 179.674V180.565C201.125 181.834 200.929 182.99 200.539 184.032C200.156 185.065 199.603 185.952 198.878 186.693C198.162 187.433 197.308 188.003 196.315 188.402C195.322 188.801 194.219 189 193.007 189ZM191.054 171.227V189H187.697V171.227H191.054ZM209.155 175.792V189H205.92V175.792H209.155ZM205.7 172.337C205.7 171.857 205.863 171.458 206.188 171.141C206.522 170.824 206.97 170.665 207.531 170.665C208.093 170.665 208.536 170.824 208.862 171.141C209.195 171.458 209.362 171.857 209.362 172.337C209.362 172.809 209.195 173.204 208.862 173.521C208.536 173.839 208.093 173.998 207.531 173.998C206.97 173.998 206.522 173.839 206.188 173.521C205.863 173.204 205.7 172.809 205.7 172.337ZM222.629 175.792H225.559V188.597C225.559 189.793 225.299 190.807 224.778 191.637C224.265 192.475 223.545 193.11 222.617 193.541C221.689 193.98 220.611 194.2 219.382 194.2C218.853 194.2 218.28 194.127 217.661 193.98C217.051 193.834 216.461 193.602 215.891 193.285C215.33 192.975 214.862 192.573 214.487 192.076L215.94 190.172C216.379 190.685 216.876 191.071 217.429 191.332C217.983 191.6 218.581 191.734 219.224 191.734C219.875 191.734 220.428 191.612 220.884 191.368C221.348 191.132 221.702 190.782 221.946 190.318C222.198 189.863 222.324 189.301 222.324 188.634V178.807L222.629 175.792ZM213.706 182.555V182.298C213.706 181.289 213.828 180.374 214.072 179.552C214.316 178.722 214.666 178.01 215.122 177.416C215.586 176.821 216.143 176.362 216.794 176.036C217.454 175.711 218.194 175.548 219.016 175.548C219.887 175.548 220.619 175.707 221.213 176.024C221.816 176.341 222.312 176.793 222.703 177.379C223.101 177.965 223.411 178.661 223.63 179.466C223.858 180.264 224.033 181.143 224.155 182.103V182.799C224.041 183.735 223.858 184.593 223.606 185.375C223.362 186.156 223.036 186.839 222.629 187.425C222.222 188.003 221.718 188.451 221.116 188.768C220.514 189.085 219.806 189.244 218.992 189.244C218.178 189.244 217.445 189.077 216.794 188.744C216.143 188.41 215.586 187.942 215.122 187.34C214.666 186.738 214.316 186.03 214.072 185.216C213.828 184.402 213.706 183.515 213.706 182.555ZM216.929 182.298V182.555C216.929 183.124 216.986 183.657 217.1 184.154C217.214 184.65 217.389 185.09 217.625 185.472C217.861 185.847 218.158 186.139 218.516 186.351C218.874 186.563 219.301 186.668 219.797 186.668C220.465 186.668 221.01 186.53 221.433 186.253C221.864 185.969 222.19 185.582 222.41 185.094C222.638 184.597 222.784 184.04 222.849 183.421V181.505C222.808 181.017 222.719 180.565 222.581 180.15C222.45 179.735 222.267 179.377 222.031 179.076C221.795 178.775 221.494 178.539 221.128 178.368C220.762 178.197 220.326 178.111 219.822 178.111C219.333 178.111 218.906 178.221 218.54 178.441C218.174 178.653 217.873 178.95 217.637 179.332C217.401 179.715 217.222 180.158 217.1 180.663C216.986 181.167 216.929 181.712 216.929 182.298ZM233.882 175.792V189H230.647V175.792H233.882ZM230.428 172.337C230.428 171.857 230.59 171.458 230.916 171.141C231.25 170.824 231.697 170.665 232.259 170.665C232.82 170.665 233.264 170.824 233.589 171.141C233.923 171.458 234.09 171.857 234.09 172.337C234.09 172.809 233.923 173.204 233.589 173.521C233.264 173.839 232.82 173.998 232.259 173.998C231.697 173.998 231.25 173.839 230.916 173.521C230.59 173.204 230.428 172.809 230.428 172.337ZM245.208 175.792V178.111H237.64V175.792H245.208ZM239.667 172.545H242.901V185.191C242.901 185.582 242.954 185.883 243.06 186.095C243.166 186.306 243.325 186.449 243.536 186.522C243.748 186.595 244 186.632 244.293 186.632C244.505 186.632 244.7 186.62 244.879 186.595C245.058 186.571 245.208 186.546 245.331 186.522L245.343 188.939C245.074 189.028 244.769 189.102 244.427 189.159C244.094 189.216 243.715 189.244 243.292 189.244C242.568 189.244 241.933 189.122 241.388 188.878C240.842 188.626 240.419 188.223 240.118 187.669C239.817 187.108 239.667 186.367 239.667 185.448V172.545ZM256.632 186.192V180.101C256.632 179.653 256.555 179.267 256.4 178.941C256.246 178.616 256.01 178.364 255.692 178.185C255.375 178.006 254.972 177.916 254.484 177.916C254.053 177.916 253.674 177.989 253.349 178.136C253.031 178.282 252.787 178.49 252.616 178.758C252.445 179.019 252.36 179.32 252.36 179.662H249.125C249.125 179.116 249.255 178.6 249.516 178.111C249.776 177.615 250.146 177.175 250.626 176.793C251.115 176.402 251.697 176.097 252.372 175.877C253.056 175.658 253.821 175.548 254.667 175.548C255.668 175.548 256.559 175.719 257.34 176.061C258.13 176.394 258.748 176.899 259.196 177.574C259.652 178.25 259.879 179.1 259.879 180.125V185.887C259.879 186.546 259.92 187.112 260.001 187.584C260.091 188.048 260.221 188.451 260.392 188.792V189H257.108C256.954 188.666 256.836 188.243 256.754 187.73C256.673 187.21 256.632 186.697 256.632 186.192ZM257.084 180.956L257.108 182.872H255.07C254.565 182.872 254.122 182.925 253.739 183.031C253.357 183.128 253.043 183.275 252.799 183.47C252.555 183.657 252.372 183.885 252.25 184.154C252.128 184.414 252.067 184.711 252.067 185.045C252.067 185.37 252.14 185.663 252.287 185.924C252.441 186.184 252.661 186.392 252.946 186.546C253.239 186.693 253.581 186.766 253.971 186.766C254.541 186.766 255.037 186.652 255.46 186.424C255.884 186.188 256.213 185.903 256.449 185.57C256.685 185.236 256.811 184.919 256.828 184.618L257.755 186.009C257.641 186.343 257.471 186.697 257.243 187.071C257.015 187.446 256.722 187.796 256.364 188.121C256.006 188.447 255.574 188.715 255.07 188.927C254.565 189.138 253.979 189.244 253.312 189.244C252.458 189.244 251.693 189.073 251.017 188.731C250.342 188.39 249.809 187.922 249.418 187.328C249.027 186.734 248.832 186.058 248.832 185.301C248.832 184.601 248.962 183.983 249.223 183.446C249.483 182.909 249.87 182.457 250.382 182.091C250.895 181.716 251.53 181.436 252.287 181.249C253.052 181.053 253.926 180.956 254.911 180.956H257.084ZM268.203 170.25V189H264.968V170.25H268.203Z" fill="white"/>
<path d="M198.097 213.153H201.454C201.365 214.341 201.035 215.395 200.465 216.314C199.896 217.226 199.102 217.942 198.085 218.463C197.068 218.984 195.835 219.244 194.386 219.244C193.271 219.244 192.266 219.049 191.371 218.658C190.484 218.259 189.723 217.694 189.088 216.961C188.462 216.221 187.982 215.334 187.648 214.3C187.314 213.259 187.147 212.091 187.147 210.797V209.442C187.147 208.148 187.318 206.98 187.66 205.938C188.002 204.897 188.49 204.01 189.125 203.277C189.768 202.537 190.537 201.967 191.432 201.568C192.335 201.17 193.345 200.97 194.459 200.97C195.908 200.97 197.133 201.239 198.134 201.776C199.135 202.305 199.912 203.033 200.465 203.961C201.019 204.889 201.352 205.955 201.466 207.159H198.109C198.044 206.41 197.882 205.776 197.621 205.255C197.369 204.734 196.986 204.339 196.474 204.071C195.969 203.794 195.298 203.656 194.459 203.656C193.808 203.656 193.235 203.778 192.738 204.022C192.25 204.266 191.843 204.632 191.518 205.121C191.192 205.601 190.948 206.203 190.785 206.927C190.622 207.643 190.541 208.473 190.541 209.417V210.797C190.541 211.7 190.614 212.51 190.761 213.226C190.907 213.942 191.135 214.549 191.444 215.045C191.754 215.541 192.152 215.92 192.641 216.18C193.129 216.441 193.711 216.571 194.386 216.571C195.208 216.571 195.875 216.441 196.388 216.18C196.909 215.92 197.304 215.537 197.572 215.033C197.849 214.528 198.024 213.902 198.097 213.153ZM211.743 219.244C210.742 219.244 209.842 219.081 209.045 218.756C208.247 218.43 207.568 217.979 207.006 217.401C206.453 216.815 206.026 216.135 205.725 215.362C205.432 214.581 205.285 213.743 205.285 212.848V212.359C205.285 211.342 205.432 210.418 205.725 209.588C206.018 208.75 206.433 208.03 206.97 207.428C207.507 206.826 208.15 206.362 208.898 206.036C209.647 205.711 210.473 205.548 211.376 205.548C212.312 205.548 213.138 205.707 213.854 206.024C214.571 206.333 215.169 206.773 215.649 207.342C216.129 207.912 216.491 208.596 216.735 209.393C216.979 210.182 217.102 211.057 217.102 212.018V213.373H206.75V211.151H213.928V210.907C213.911 210.394 213.814 209.926 213.635 209.503C213.456 209.072 213.179 208.73 212.805 208.478C212.43 208.217 211.946 208.087 211.352 208.087C210.872 208.087 210.453 208.193 210.095 208.404C209.745 208.608 209.452 208.901 209.216 209.283C208.988 209.658 208.817 210.105 208.703 210.626C208.589 211.147 208.532 211.725 208.532 212.359V212.848C208.532 213.401 208.605 213.914 208.752 214.386C208.907 214.858 209.13 215.269 209.423 215.619C209.724 215.96 210.083 216.229 210.498 216.424C210.921 216.611 211.401 216.705 211.938 216.705C212.613 216.705 213.224 216.575 213.769 216.314C214.322 216.046 214.803 215.651 215.209 215.13L216.833 216.815C216.556 217.222 216.182 217.612 215.71 217.987C215.246 218.361 214.685 218.666 214.025 218.902C213.366 219.13 212.605 219.244 211.743 219.244ZM224.424 208.612V219H221.201V205.792H224.229L224.424 208.612ZM223.911 211.92H222.959C222.967 210.96 223.097 210.089 223.35 209.308C223.602 208.526 223.956 207.855 224.412 207.293C224.875 206.732 225.425 206.301 226.06 206C226.694 205.698 227.402 205.548 228.184 205.548C228.818 205.548 229.392 205.637 229.905 205.816C230.417 205.995 230.857 206.28 231.223 206.671C231.597 207.062 231.882 207.574 232.078 208.209C232.281 208.836 232.383 209.609 232.383 210.528V219H229.136V210.504C229.136 209.902 229.046 209.426 228.867 209.076C228.696 208.726 228.444 208.478 228.11 208.331C227.785 208.185 227.382 208.111 226.902 208.111C226.405 208.111 225.97 208.213 225.596 208.417C225.229 208.612 224.92 208.884 224.668 209.234C224.424 209.584 224.237 209.987 224.106 210.443C223.976 210.899 223.911 211.391 223.911 211.92ZM243.477 205.792V208.111H235.909V205.792H243.477ZM237.935 202.545H241.17V215.191C241.17 215.582 241.223 215.883 241.329 216.095C241.434 216.306 241.593 216.449 241.805 216.522C242.016 216.595 242.269 216.632 242.562 216.632C242.773 216.632 242.968 216.62 243.147 216.595C243.326 216.571 243.477 216.546 243.599 216.522L243.611 218.939C243.343 219.028 243.038 219.102 242.696 219.159C242.362 219.216 241.984 219.244 241.561 219.244C240.836 219.244 240.201 219.122 239.656 218.878C239.111 218.626 238.688 218.223 238.387 217.669C238.086 217.108 237.935 216.367 237.935 215.448V202.545ZM253.558 219.244C252.557 219.244 251.658 219.081 250.86 218.756C250.063 218.43 249.383 217.979 248.822 217.401C248.268 216.815 247.841 216.135 247.54 215.362C247.247 214.581 247.101 213.743 247.101 212.848V212.359C247.101 211.342 247.247 210.418 247.54 209.588C247.833 208.75 248.248 208.03 248.785 207.428C249.322 206.826 249.965 206.362 250.714 206.036C251.463 205.711 252.289 205.548 253.192 205.548C254.128 205.548 254.954 205.707 255.67 206.024C256.386 206.333 256.984 206.773 257.464 207.342C257.944 207.912 258.307 208.596 258.551 209.393C258.795 210.182 258.917 211.057 258.917 212.018V213.373H248.565V211.151H255.743V210.907C255.727 210.394 255.629 209.926 255.45 209.503C255.271 209.072 254.994 208.73 254.62 208.478C254.246 208.217 253.762 208.087 253.167 208.087C252.687 208.087 252.268 208.193 251.91 208.404C251.56 208.608 251.267 208.901 251.031 209.283C250.803 209.658 250.632 210.105 250.519 210.626C250.405 211.147 250.348 211.725 250.348 212.359V212.848C250.348 213.401 250.421 213.914 250.567 214.386C250.722 214.858 250.946 215.269 251.239 215.619C251.54 215.96 251.898 216.229 252.313 216.424C252.736 216.611 253.216 216.705 253.753 216.705C254.429 216.705 255.039 216.575 255.584 216.314C256.138 216.046 256.618 215.651 257.025 215.13L258.648 216.815C258.372 217.222 257.997 217.612 257.525 217.987C257.062 218.361 256.5 218.666 255.841 218.902C255.182 219.13 254.421 219.244 253.558 219.244ZM266.3 208.49V219H263.078V205.792H266.129L266.3 208.49ZM270.316 205.707L270.268 208.709C270.089 208.677 269.885 208.653 269.657 208.636C269.438 208.62 269.23 208.612 269.035 208.612C268.538 208.612 268.103 208.681 267.729 208.819C267.354 208.95 267.041 209.141 266.789 209.393C266.544 209.645 266.357 209.955 266.227 210.321C266.097 210.679 266.024 211.086 266.007 211.542L265.312 211.456C265.312 210.618 265.397 209.841 265.568 209.125C265.739 208.408 265.987 207.782 266.312 207.245C266.638 206.708 267.045 206.292 267.533 206C268.03 205.698 268.599 205.548 269.242 205.548C269.421 205.548 269.612 205.564 269.816 205.597C270.028 205.621 270.194 205.658 270.316 205.707Z" fill="white"/>
<defs>
<filter id="filter0_ddddii_3235_7687" x="0" y="0" width="360" height="360" filterUnits="userSpaceOnUse" color-interpolation-filters="sRGB">
<feFlood flood-opacity="0" result="BackgroundImageFix"/>
<feColorMatrix in="SourceAlpha" type="matrix" values="0 0 0 0 0 0 0 0 0 0 0 0 0 0 0 0 0 0 127 0" result="hardAlpha"/>
<feOffset dx="5" dy="5"/>
<feGaussianBlur stdDeviation="6.5"/>
<feColorMatrix type="matrix" values="0 0 0 0 0.0666667 0 0 0 0 0.0627451 0 0 0 0 0.0705882 0 0 0 0.9 0"/>
<feBlend mode="normal" in2="BackgroundImageFix" result="effect1_dropShadow_3235_7687"/>
<feColorMatrix in="SourceAlpha" type="matrix" values="0 0 0 0 0 0 0 0 0 0 0 0 0 0 0 0 0 0 127 0" result="hardAlpha"/>
<feOffset dx="-5" dy="-5"/>
<feGaussianBlur stdDeviation="5"/>
<feColorMatrix type="matrix" values="0 0 0 0 0.0901961 0 0 0 0 0.0862745 0 0 0 0 0.101961 0 0 0 0.9 0"/>
<feBlend mode="normal" in2="effect1_dropShadow_3235_7687" result="effect2_dropShadow_3235_7687"/>
<feColorMatrix in="SourceAlpha" type="matrix" values="0 0 0 0 0 0 0 0 0 0 0 0 0 0 0 0 0 0 127 0" result="hardAlpha"/>
<feOffset dx="5" dy="-5"/>
<feGaussianBlur stdDeviation="5"/>
<feColorMatrix type="matrix" values="0 0 0 0 0.0666667 0 0 0 0 0.0627451 0 0 0 0 0.0705882 0 0 0 0.2 0"/>
<feBlend mode="normal" in2="effect2_dropShadow_3235_7687" result="effect3_dropShadow_3235_7687"/>
<feColorMatrix in="SourceAlpha" type="matrix" values="0 0 0 0 0 0 0 0 0 0 0 0 0 0 0 0 0 0 127 0" result="hardAlpha"/>
<feOffset dx="-5" dy="5"/>
<feGaussianBlur stdDeviation="5"/>
<feColorMatrix type="matrix" values="0 0 0 0 0.0666667 0 0 0 0 0.0627451 0 0 0 0 0.0705882 0 0 0 0.2 0"/>
<feBlend mode="normal" in2="effect3_dropShadow_3235_7687" result="effect4_dropShadow_3235_7687"/>
<feBlend mode="normal" in="SourceGraphic" in2="effect4_dropShadow_3235_7687" result="shape"/>
<feColorMatrix in="SourceAlpha" type="matrix" values="0 0 0 0 0 0 0 0 0 0 0 0 0 0 0 0 0 0 127 0" result="hardAlpha"/>
<feOffset dx="-1" dy="-1"/>
<feGaussianBlur stdDeviation="1"/>
<feComposite in2="hardAlpha" operator="arithmetic" k2="-1" k3="1"/>
<feColorMatrix type="matrix" values="0 0 0 0 0.0666667 0 0 0 0 0.0627451 0 0 0 0 0.0705882 0 0 0 0.5 0"/>
<feBlend mode="normal" in2="shape" result="effect5_innerShadow_3235_7687"/>
<feColorMatrix in="SourceAlpha" type="matrix" values="0 0 0 0 0 0 0 0 0 0 0 0 0 0 0 0 0 0 127 0" result="hardAlpha"/>
<feOffset dx="1" dy="1"/>
<feGaussianBlur stdDeviation="1"/>
<feComposite in2="hardAlpha" operator="arithmetic" k2="-1" k3="1"/>
<feColorMatrix type="matrix" values="0 0 0 0 0.0901961 0 0 0 0 0.0862745 0 0 0 0 0.101961 0 0 0 0.3 0"/>
<feBlend mode="normal" in2="effect5_innerShadow_3235_7687" result="effect6_innerShadow_3235_7687"/>
</filter>
<filter id="filter1_f_3235_7687" x="11" y="11" width="335" height="335" filterUnits="userSpaceOnUse" color-interpolation-filters="sRGB">
<feFlood flood-opacity="0" result="BackgroundImageFix"/>
<feBlend mode="normal" in="SourceGraphic" in2="BackgroundImageFix" result="shape"/>
<feGaussianBlur stdDeviation="2" result="effect1_foregroundBlur_3235_7687"/>
</filter>
<linearGradient id="paint0_linear_3235_7687" x1="178.5" y1="15" x2="178.5" y2="342" gradientUnits="userSpaceOnUse">
<stop stop-color="#FF6600"/>
<stop offset="1" stop-color="#FF6600" stop-opacity="0"/>
</linearGradient>
<linearGradient id="paint1_linear_3235_7687" x1="178.5" y1="15" x2="178.5" y2="342" gradientUnits="userSpaceOnUse">
<stop stop-color="#FF6600"/>
<stop offset="1" stop-color="#FF6600" stop-opacity="0"/>
</linearGradient>
</defs>
</svg>
