<svg width="21" height="20" viewBox="0 0 21 20" fill="none" xmlns="http://www.w3.org/2000/svg">
<path d="M15.8595 0.818115H4.17355C3.06707 0.819441 2.00628 1.25958 1.22387 2.04198C0.441463 2.82439 0.0013254 3.88518 0 4.99167L0 15.0082C0.0013254 16.1147 0.441463 17.1755 1.22387 17.9579C2.00628 18.7403 3.06707 19.1804 4.17355 19.1818H15.8595C16.966 19.1804 18.0268 18.7403 18.8092 17.9579C19.5916 17.1755 20.0317 16.1147 20.0331 15.0082V4.99167C20.0317 3.88518 19.5916 2.82439 18.8092 2.04198C18.0268 1.25958 16.966 0.819441 15.8595 0.818115V0.818115ZM4.17355 2.48754H15.8595C16.3593 2.48852 16.8474 2.63905 17.2609 2.91975C17.6745 3.20046 17.9946 3.59849 18.18 4.06264L11.7878 10.4557C11.3174 10.9242 10.6805 11.1873 10.0165 11.1873C9.35259 11.1873 8.71569 10.9242 8.24527 10.4557L1.85306 4.06264C2.03849 3.59849 2.35857 3.20046 2.77211 2.91975C3.18566 2.63905 3.67374 2.48852 4.17355 2.48754V2.48754ZM15.8595 17.5123H4.17355C3.50942 17.5123 2.87248 17.2485 2.40287 16.7789C1.93325 16.3093 1.66942 15.6723 1.66942 15.0082V6.24373L7.06499 11.636C7.84847 12.4175 8.90992 12.8563 10.0165 12.8563C11.1231 12.8563 12.1846 12.4175 12.9681 11.636L18.3636 6.24373V15.0082C18.3636 15.6723 18.0998 16.3093 17.6302 16.7789C17.1606 17.2485 16.5236 17.5123 15.8595 17.5123Z" fill="#FF6600"/>
</svg>
