<svg width="21" height="22" viewBox="0 0 21 22" fill="none" xmlns="http://www.w3.org/2000/svg">
<g clip-path="url(#clip0_1310_10524)">
<path d="M15.8595 1.81812H4.17355C3.06707 1.81944 2.00628 2.25958 1.22387 3.04198C0.441463 3.82439 0.0013254 4.88518 0 5.99167L0 16.0082C0.0013254 17.1147 0.441463 18.1755 1.22387 18.9579C2.00628 19.7403 3.06707 20.1804 4.17355 20.1818H15.8595C16.966 20.1804 18.0268 19.7403 18.8092 18.9579C19.5916 18.1755 20.0317 17.1147 20.0331 16.0082V5.99167C20.0317 4.88518 19.5916 3.82439 18.8092 3.04198C18.0268 2.25958 16.966 1.81944 15.8595 1.81812V1.81812ZM4.17355 3.48754H15.8595C16.3593 3.48852 16.8474 3.63905 17.2609 3.91975C17.6745 4.20046 17.9946 4.59849 18.18 5.06264L11.7878 11.4557C11.3174 11.9242 10.6805 12.1873 10.0165 12.1873C9.35259 12.1873 8.71569 11.9242 8.24527 11.4557L1.85306 5.06264C2.03849 4.59849 2.35857 4.20046 2.77211 3.91975C3.18566 3.63905 3.67374 3.48852 4.17355 3.48754V3.48754ZM15.8595 18.5123H4.17355C3.50942 18.5123 2.87248 18.2485 2.40287 17.7789C1.93325 17.3093 1.66942 16.6723 1.66942 16.0082V7.24373L7.06499 12.636C7.84847 13.4175 8.90992 13.8563 10.0165 13.8563C11.1231 13.8563 12.1846 13.4175 12.9681 12.636L18.3636 7.24373V16.0082C18.3636 16.6723 18.0998 17.3093 17.6302 17.7789C17.1606 18.2485 16.5236 18.5123 15.8595 18.5123Z" fill="#FF6600"/>
</g>
<defs>
<clipPath id="clip0_1310_10524">
<rect width="20.0331" height="20.0331" fill="white" transform="translate(0 0.983398)"/>
</clipPath>
</defs>
</svg>
