<svg width="28" height="28" viewBox="0 0 28 28" fill="none" xmlns="http://www.w3.org/2000/svg">
<path d="M15.5134 3.20825C10.1864 3.20825 5.76667 7.08039 4.89035 12.1588L3.16314 10.5706C2.8073 10.2439 2.2525 10.2649 1.92583 10.6207C1.59916 10.9754 1.62241 11.5302 1.97824 11.858L5.00428 14.6448C5.0752 14.7098 5.15619 14.7572 5.24126 14.7952C5.26251 14.8047 5.28524 14.8078 5.30734 14.8157C5.38514 14.8432 5.46439 14.8609 5.5466 14.8658C5.5641 14.8668 5.57897 14.8749 5.59673 14.8749C5.60888 14.8749 5.61888 14.8686 5.63091 14.8681C5.734 14.8643 5.83781 14.8478 5.93625 14.8066L9.8145 13.1796C10.2602 12.9929 10.4695 12.4791 10.2816 12.0334C10.095 11.5889 9.58224 11.3774 9.13774 11.564L6.58794 12.635C7.2488 8.2939 10.989 4.95825 15.5134 4.95825C20.5044 4.95825 24.5551 9.01009 24.5551 13.9999C24.5551 18.9898 20.5044 23.0416 15.5134 23.0416C11.6459 23.0416 8.34428 20.6072 7.05278 17.19C6.88245 16.7385 6.37635 16.5116 5.92485 16.6819C5.47219 16.8534 5.2441 17.3583 5.41444 17.8098C6.9556 21.8885 10.8981 24.7916 15.5134 24.7916C21.4692 24.7916 26.3051 19.9558 26.3051 13.9999C26.3051 8.04409 21.4692 3.20825 15.5134 3.20825ZM15.5134 6.18416C15.0304 6.18416 14.6384 6.57616 14.6384 7.05916V13.9999C14.6384 14.4829 15.0304 14.8749 15.5134 14.8749H20.4717C20.9547 14.8749 21.3467 14.4829 21.3467 13.9999C21.3467 13.5169 20.9547 13.1249 20.4717 13.1249H16.3884V7.05916C16.3884 6.57616 15.9964 6.18416 15.5134 6.18416Z" fill="white"/>
</svg>
