<svg width="21" height="22" viewBox="0 0 21 22" fill="none" xmlns="http://www.w3.org/2000/svg">
<g clip-path="url(#clip0_1310_10450)">
<path d="M15.859 8.015V6.82637C15.859 5.27672 15.2434 3.79054 14.1477 2.69477C13.0519 1.599 11.5657 0.983398 10.0161 0.983398C8.4664 0.983398 6.98022 1.599 5.88445 2.69477C4.78868 3.79054 4.17308 5.27672 4.17308 6.82637V8.015C3.42965 8.33946 2.79688 8.87352 2.35216 9.55188C1.90743 10.2302 1.67001 11.0235 1.66895 11.8346V16.8429C1.67027 17.9494 2.11041 19.0102 2.89281 19.7926C3.67522 20.575 4.73601 21.0151 5.8425 21.0165H14.1896C15.2961 21.0151 16.3569 20.575 17.1393 19.7926C17.9217 19.0102 18.3618 17.9494 18.3632 16.8429V11.8346C18.3621 11.0235 18.1247 10.2302 17.68 9.55188C17.2352 8.87352 16.6025 8.33946 15.859 8.015ZM5.8425 6.82637C5.8425 5.71948 6.28221 4.65792 7.0649 3.87523C7.8476 3.09253 8.90916 2.65282 10.0161 2.65282C11.1229 2.65282 12.1845 3.09253 12.9672 3.87523C13.7499 4.65792 14.1896 5.71948 14.1896 6.82637V7.66108H5.8425V6.82637ZM16.6937 16.8429C16.6937 17.507 16.4299 18.144 15.9603 18.6136C15.4907 19.0832 14.8537 19.347 14.1896 19.347H5.8425C5.17836 19.347 4.54143 19.0832 4.07181 18.6136C3.60219 18.144 3.33837 17.507 3.33837 16.8429V11.8346C3.33837 11.1705 3.60219 10.5336 4.07181 10.0639C4.54143 9.59433 5.17836 9.33051 5.8425 9.33051H14.1896C14.8537 9.33051 15.4907 9.59433 15.9603 10.0639C16.4299 10.5336 16.6937 11.1705 16.6937 11.8346V16.8429Z" fill="#FF6600"/>
<path d="M10.0164 12.6694C9.79497 12.6694 9.58266 12.7574 9.42612 12.9139C9.26958 13.0705 9.18164 13.2828 9.18164 13.5041V15.1736C9.18164 15.3949 9.26958 15.6073 9.42612 15.7638C9.58266 15.9203 9.79497 16.0083 10.0164 16.0083C10.2377 16.0083 10.45 15.9203 10.6066 15.7638C10.7631 15.6073 10.8511 15.3949 10.8511 15.1736V13.5041C10.8511 13.2828 10.7631 13.0705 10.6066 12.9139C10.45 12.7574 10.2377 12.6694 10.0164 12.6694Z" fill="#FF6600"/>
</g>
<defs>
<clipPath id="clip0_1310_10450">
<rect width="20.0331" height="20.0331" fill="white" transform="translate(0 0.983398)"/>
</clipPath>
</defs>
</svg>
